<?xml version="1.0" encoding="UTF-8" standalone="no"?>
<!-- Created with Inkscape (http://www.inkscape.org/) -->

<svg
   version="1.1"
   id="svg2"
   width="190"
   height="50"
   viewBox="0 0 190 50"
   sodipodi:docname="Antifas.svg"
   inkscape:version="1.1.2 (0a00cf5339, 2022-02-04)"
   xmlns:inkscape="http://www.inkscape.org/namespaces/inkscape"
   xmlns:sodipodi="http://sodipodi.sourceforge.net/DTD/sodipodi-0.dtd"
   xmlns="http://www.w3.org/2000/svg"
   xmlns:svg="http://www.w3.org/2000/svg">
  <defs
     id="defs6" />
  <sodipodi:namedview
     id="namedview4"
     pagecolor="#ffffff"
     bordercolor="#666666"
     borderopacity="1.0"
     inkscape:pageshadow="2"
     inkscape:pageopacity="0.0"
     inkscape:pagecheckerboard="0"
     showgrid="false"
     inkscape:zoom="1"
     inkscape:cx="147.5"
     inkscape:cy="-27.5"
     inkscape:window-width="1296"
     inkscape:window-height="704"
     inkscape:window-x="70"
     inkscape:window-y="27"
     inkscape:window-maximized="1"
     inkscape:current-layer="g8"
     showguides="true"
     inkscape:guide-bbox="true">
    <sodipodi:guide
       position="260.88656,-1.3478872"
       orientation="0,-1"
       id="guide5216" />
  </sodipodi:namedview>
  <g
     inkscape:groupmode="layer"
     inkscape:label="Image"
     id="g8">
    <path
       style="fill:#000000;stroke-width:0.178913"
       d="M 73.719145,49.809864 73.722499,28.4573 C 73.725295,9.3070578 73.695327,7.2648013 73.439497,7.1666198 73.283843,7.1068908 71.484825,7.0580217 69.441675,7.0580217 c -3.371632,0 -3.742167,-0.030225 -4.010912,-0.327186 -0.25201,-0.2784673 -0.296101,-0.7979588 -0.296101,-3.488809 V 0.0804038 h 13.150126 13.150126 v 3.3036008 c 0,3.0300769 -0.0274,3.3182531 -0.330677,3.4805733 -0.182469,0.097657 -2.002805,0.189378 -4.061588,0.2046527 C 84.990653,7.084455 83.20719,7.1370293 83.079407,7.1860644 82.89072,7.2584717 82.847076,11.254115 82.847076,28.4573 l -0.04573,21.352564 z m 19.375402,0 -0.04942,-20.374697 V 9.230952 l 0.483787,-0.3805474 c 0.463738,-0.3647751 0.637748,-0.3782898 4.198463,-0.3260834 3.282763,0.048128 3.751783,0.091608 4.033773,0.3739243 0.30186,0.3021979 0.32164,1.4116025 0.36609,20.5302985 l 0.047,20.38132 z m 10.689843,0 -0.005,-24.949971 V 0.0804038 h 13.15013 13.15012 v 3.1427443 c 0,1.8242295 -0.0777,3.2879335 -0.18521,3.4888089 -0.17898,0.3344247 -0.46132,0.3460647 -8.39429,0.3460647 -4.51499,0 -8.33896,0.049839 -8.49771,0.1107569 -0.25805,0.099025 -0.28664,0.7384908 -0.26987,6.0368904 0.0104,3.259374 0.0632,6.148184 0.11745,6.419577 l 0.0986,0.493445 h 6.19979 c 5.32173,0 6.25611,0.03945 6.59743,0.278514 0.38983,0.273047 0.39763,0.353644 0.39763,4.104862 0,3.751217 -0.008,3.831814 -0.39763,4.10486 -0.34132,0.239068 -1.27566,0.278514 -6.59703,0.278514 h -6.19939 l -0.10312,0.939295 c -0.12501,1.138783 0.0689,19.977775 0.0689,19.977775 z m 54.79435,0 c -1.01889,-0.762248 -1.99996,-2.206028 -2.52848,-3.253199 -1.00401,-1.989242 -1.10119,-2.696312 -1.10119,-8.012341 0,-4.577966 0.0171,-4.824774 0.34607,-5.000842 0.20778,-0.111202 1.88376,-0.185208 4.19432,-0.185208 3.77385,0 3.85363,0.0077 4.12676,0.397637 0.22537,0.321758 0.27852,0.973809 0.27852,3.417041 0,4.618369 0.14115,4.783642 4.06139,4.755326 1.35792,-0.0098 2.66931,-0.07361 2.91421,-0.141777 0.24491,-0.06817 0.6286,-0.395976 0.85266,-0.728461 0.40212,-0.596698 0.40677,-0.66691 0.35984,-5.426326 l -0.0475,-4.821807 -1.4313,-0.498367 c -0.78722,-0.274102 -4.42804,-1.477727 -8.09071,-2.674725 -5.87259,-1.919221 -6.71285,-2.239881 -7.1118,-2.714009 l -0.45243,-0.53765 v -9.281035 c 0,-10.1633945 0.0103,-10.2827892 1.07988,-12.464785 0.32503,-0.6631118 0.87459,-1.4002322 1.36721,-1.8338611 l 0.82373,-0.7250711 h 9.88792 9.88792 l 0.84974,0.9392947 c 0.94171,1.0409803 1.7187,2.5894251 2.02439,4.034355 0.28462,1.3453672 0.27269,10.2692125 -0.0141,10.5560235 -0.15412,0.154115 -1.33762,0.214695 -4.19432,0.214695 -3.90961,0 -3.98453,-0.007 -4.25814,-0.397635 -0.22558,-0.322054 -0.27857,-0.976703 -0.27879,-3.444081 -4.2e-4,-4.5570991 -0.18608,-4.7876468 -3.93581,-4.8872551 -2.05034,-0.054462 -2.30341,-0.025014 -3.04153,0.353961 -0.59822,0.3071488 -0.85998,0.5742786 -1.01865,1.0395661 -0.30938,0.9072278 -0.31835,9.911015 -0.0101,10.145342 0.29633,0.225268 0.68453,0.35856 8.81148,3.025457 6.03704,1.981085 7.05599,2.366753 7.55908,2.861047 l 0.58147,0.571306 -0.002,9.187197 c -0.002,9.718381 -0.0182,9.936257 -0.87005,11.861968 -0.5201,1.175756 -2.20035,2.789732 -2.20035,2.789732 l -1.20432,0.878487 z m 24.22724,0 -0.0914,-3.653321 c -0.0765,-3.057352 0.0943,-3.521766 0.37456,-3.801907 0.27157,-0.271478 0.71857,-0.328188 2.99679,-0.380207 l 2.67773,-0.06114 v 7.896571 z m -156.931559,0 C 25.704879,48.8879 25.593445,47.938627 25.431863,47.1265 25.243822,46.196131 24.865221,44.287638 24.590532,42.885406 l -0.499434,-2.549515 h -5.766415 c -6.446083,0 -5.819559,-0.138978 -6.049136,1.34185 -0.06102,0.393609 -0.189644,1.077952 -0.285827,1.520763 -0.386243,1.778207 -1.195584,6.61136 -1.195584,6.61136 H 3.8796791 L 3.8227521,44.674538 C 3.7908816,41.79952 3.9805207,39.17566 4.0907553,38.725672 4.199231,38.282861 4.404605,37.356985 4.5471407,36.668169 4.689677,35.979353 5.0608779,34.248367 5.3720316,32.821534 5.6831853,31.3947 6.1021442,29.462437 6.3030516,28.527615 6.5039589,27.592793 6.7330802,26.54615 6.8122114,26.201742 6.8913419,25.857334 7.0762421,25.011969 7.2231002,24.323153 7.3699579,23.634337 7.6680369,22.265651 7.8854976,21.281627 8.1029577,20.297604 8.3459728,19.170451 8.42553,18.776842 8.5050871,18.383232 8.8258747,16.893779 9.1383915,15.466946 9.4509077,14.040112 9.8101507,12.389637 9.9367083,11.799224 10.063266,11.20881 10.426467,9.5583348 10.743821,8.1315014 11.061175,6.704668 11.392251,5.1749594 11.479544,4.732149 11.566837,4.2893387 11.82107,3.081674 12.044506,2.0484499 l 0.406249,-1.8785894 5.84886,-0.047163 5.84886,-0.047163 0.20434,0.7588637 c 0.211261,0.7845588 0.579776,2.4324476 0.890722,3.9830367 0.200086,0.9977573 1.271952,5.9504301 1.820777,8.4130961 0.197368,0.885621 0.421543,1.932263 0.498166,2.325873 0.07662,0.393609 0.35111,1.681784 0.609967,2.862611 0.258859,1.180828 0.628473,2.871558 0.821364,3.757179 0.192892,0.885622 0.5177,2.375075 0.721796,3.309896 0.204095,0.934822 0.526418,2.424275 0.716276,3.309895 0.189855,0.88562 0.468931,2.173796 0.62017,2.862612 0.657714,2.995581 0.995744,4.559198 1.257045,5.814682 0.327518,1.573642 1.294483,5.984851 1.980559,9.03512 0.282962,1.090498 0.428945,2.21629 0.726738,3.301465 z m 29.137474,0 0.103635,-13.857348 c 0.06735,-9.005049 -0.0612,-13.686865 -0.178913,-13.686865 -0.0984,0 -0.178913,0.03124 -0.178913,0.06942 0,0.03818 -0.288034,0.863417 -0.640068,1.833861 -0.352034,0.970443 -1.043137,2.891596 -1.535775,4.269228 -1.7813,4.981282 -3.213478,8.945326 -4.524801,12.52393 -0.694491,1.895283 -1.820375,5.066298 -2.064525,5.814681 -0.08025,0.246006 -0.354287,0.990733 -0.608953,1.654948 l -0.499917,1.378147 h -8.831389 l 0.05438,-24.994701 0.04534,-24.7347612 h 4.472206 4.4722 V 13.398884 c 0,7.76195 0.06761,13.360265 0.162051,13.418631 0.08913,0.05508 0.284031,-0.24208 0.433121,-0.660365 0.444102,-1.245974 1.727961,-4.802288 2.115342,-5.859546 0.198303,-0.541212 0.669706,-1.869643 1.04756,-2.952069 0.377859,-1.082425 0.901057,-2.531623 1.162668,-3.220439 0.26161,-0.688816 0.582832,-1.574437 0.713825,-1.968046 0.130992,-0.393609 0.619023,-1.762296 1.084505,-3.0415256 0.869843,-2.390481 2.399227,-6.6795518 2.918053,-8.1835232 l 0.292562,-0.8480788 4.504036,-0.00176 4.50404,-0.00176 0.07068,2.5495142 c 0.03886,1.4022328 0.08331,12.4523634 0.09873,24.5558464 0.03936,7.521901 0.005,15.102278 0.05705,22.624103 z m 91.860645,0 -2.01636,-9.473973 h -5.75452 -5.75453 l -0.19924,0.760382 c -0.10959,0.41821 -0.28407,1.283702 -0.38774,1.923317 -0.10367,0.639615 -0.26542,1.565492 -0.35944,2.057503 -0.094,0.492012 -0.29761,1.57891 -0.4524,2.415329 -0.1548,0.83642 -0.23677,2.145238 -0.28613,2.317442 l -9.14522,-10e-7 0.57975,-2.943638 c 0.21726,-0.984023 0.58379,-2.674753 0.81449,-3.757178 0.23069,-1.082426 0.58972,-2.732901 0.79782,-3.667723 0.20811,-0.934822 0.45342,-2.061975 0.54514,-2.504786 0.0917,-0.44281 0.33429,-1.569964 0.53903,-2.504786 0.81988,-3.743418 1.28071,-5.874137 1.52846,-7.067074 0.14306,-0.688816 0.34481,-1.614692 0.44834,-2.057503 0.40153,-1.717424 0.53884,-2.345209 1.23269,-5.635768 0.39424,-1.869643 0.83167,-3.882418 0.97208,-4.472832 0.2574,-1.082386 0.51976,-2.299231 1.27298,-5.9041378 0.36983,-1.7699556 0.91765,-4.3025548 1.35453,-6.2619649 0.0877,-0.3936092 0.26065,-1.1987189 0.3842,-1.7891327 l 0.22464,-1.0734797 5.8515,-0.047163 5.8515,-0.047163 0.17803,0.6733593 c 0.15622,0.5908717 0.34857,1.4561323 1.08434,4.8778216 0.0952,0.4428104 0.46014,2.1335409 0.81095,3.7571789 0.62222,2.8798303 0.86169,3.9966753 1.17004,5.4568553 0.0831,0.393609 0.31201,1.440252 0.50865,2.325872 0.19664,0.885621 0.48755,2.214052 0.64647,2.95207 0.15892,0.738017 0.36015,1.663893 0.44718,2.057502 0.34005,1.537894 0.86704,3.986986 1.07795,5.009572 0.12177,0.590413 0.32814,1.51629 0.45859,2.057502 0.13046,0.541213 0.44271,1.990411 0.69388,3.220439 0.25118,1.230029 0.62158,2.961015 0.82311,3.846636 0.20153,0.885621 0.43984,1.972519 0.52958,2.415329 0.0897,0.442811 0.28975,1.368687 0.44447,2.057503 0.15471,0.688816 0.4809,2.218525 0.72484,3.399352 0.24395,1.180828 0.60011,2.896377 0.8337,3.801907 l 0.47088,1.825431 z M 22.374396,32.366707 c 0,-0.151752 -0.112913,-0.856223 -0.250917,-1.565491 -0.138003,-0.709267 -0.426691,-2.25571 -0.641528,-3.436538 -0.214836,-1.180827 -0.579901,-3.153346 -0.811254,-4.383374 -0.603209,-3.207071 -1.303673,-7.004041 -1.617288,-8.766751 -0.601775,-3.382354 -0.671381,-3.662377 -0.819978,-3.298793 -0.07794,0.190698 -0.309875,1.2726 -0.515415,2.404227 -0.205538,1.131626 -0.5267,2.902867 -0.713691,3.936092 -1.588495,8.777277 -2.516363,13.798529 -2.660544,14.397809 -0.09408,0.391021 -0.132418,0.773448 -0.08521,0.849838 0.04721,0.07639 1.892586,0.138894 4.10083,0.138894 3.498387,0 4.014991,-0.0355 4.014991,-0.275913 z m 120.765274,0.141728 c -0.002,-0.256971 -0.9105,-5.277633 -2.24128,-12.389744 -0.45111,-2.410856 -0.88882,-4.826186 -0.97268,-5.367398 -0.0839,-0.541213 -0.28033,-1.587856 -0.43657,-2.325873 -0.15624,-0.738017 -0.28659,-1.42236 -0.28967,-1.520763 -0.0157,-0.502598 -0.34605,0.536786 -0.59708,1.87859 -0.15649,0.836419 -0.52156,2.768683 -0.81129,4.293918 -0.44237,2.328894 -2.03782,10.996579 -2.53578,13.776322 -0.0793,0.442811 -0.14903,1.026515 -0.15489,1.297122 l -0.0107,0.492011 h 4.02555 c 2.21405,0 4.02502,-0.06038 4.02436,-0.134185 z m 39.81953,7.608733 c -0.248,-0.354082 -0.27851,-2.568511 -0.27851,-20.217201 V 0.0804038 h 3.04153 3.04152 V 20.297604 40.514805 h -2.76301 c -2.65239,0 -2.77416,-0.01592 -3.04153,-0.397637 z M 93.323651,6.6603858 C 93.097667,6.3377426 93.045139,5.6797644 93.045139,3.1715769 V 0.0804038 h 4.562289 4.562292 v 2.9609539 c 0,2.3041806 -0.0605,3.078038 -0.27297,3.4888089 l -0.27297,0.5278551 h -4.0108 c -3.94184,0 -4.015603,-0.00684 -4.289329,-0.3976359 z"
       id="path845"
       sodipodi:nodetypes="cssssscccssssscccccsssccccccccsssscccssssscscccsssssssssscssscssscccssssssssssssccsccccssscccccscsssccsssssssssssssscccssssssssssccccssssssssccccccssssssssscccccccccccsssscccssssssssssscccsssssssssssssssccssssssssssssssssssssscssssscccccsssscccsscss" />
  </g>
</svg>
