<?xml version="1.0" encoding="UTF-8" standalone="no"?>
<!-- Created with Inkscape (http://www.inkscape.org/) -->

<svg
   width="210mm"
   height="297mm"
   viewBox="0 0 210 297"
   version="1.1"
   id="svg1252"
   xml:space="preserve"
   inkscape:version="1.2.2 (b0a8486541, 2022-12-01)"
   sodipodi:docname="Bandeiras.svg"
   xmlns:inkscape="http://www.inkscape.org/namespaces/inkscape"
   xmlns:sodipodi="http://sodipodi.sourceforge.net/DTD/sodipodi-0.dtd"
   xmlns="http://www.w3.org/2000/svg"
   xmlns:svg="http://www.w3.org/2000/svg"><sodipodi:namedview
     id="namedview1254"
     pagecolor="#ffffff"
     bordercolor="#666666"
     borderopacity="1.0"
     inkscape:showpageshadow="2"
     inkscape:pageopacity="0.0"
     inkscape:pagecheckerboard="0"
     inkscape:deskcolor="#d1d1d1"
     inkscape:document-units="mm"
     showgrid="false"
     inkscape:zoom="0.84096521"
     inkscape:cx="355.54384"
     inkscape:cy="476.23849"
     inkscape:window-width="1296"
     inkscape:window-height="704"
     inkscape:window-x="70"
     inkscape:window-y="27"
     inkscape:window-maximized="1"
     inkscape:current-layer="layer1" /><defs
     id="defs1249" /><g
     inkscape:label="Camada 1"
     inkscape:groupmode="layer"
     id="layer1"><path
       id="path1268"
       style="fill:#1a1a1a;stroke-width:0.264583"
       d="M 128.89808 24.948865 L 127.42633 26.294519 C 125.30629 28.232105 120.35013 30.632733 116.29884 31.684371 C 113.60085 32.384729 112.4965 32.527651 108.94942 32.637801 C 101.43479 32.871171 96.516025 31.856389 89.046761 28.531075 C 81.799925 25.304781 79.010673 24.641523 75.420719 25.290963 C 71.637017 25.975451 68.601115 27.749961 64.256543 31.816663 C 62.141127 33.796789 59.21638 36.225144 58.553532 36.551774 C 58.517332 36.569674 59.907366 40.622243 61.642232 45.557943 C 63.3771 50.493643 65.586292 56.794274 66.55201 59.559155 C 67.517718 62.324051 69.005393 66.550778 69.857751 68.951864 C 70.710121 71.352958 73.330041 78.526775 75.49255 84.957605 L 89.919059 127.85886 A 30.087746 13.730182 0 0 0 67.030017 123.039 A 30.087746 13.730182 0 0 0 36.942448 136.76943 A 30.087746 13.730182 0 0 0 67.030017 150.49934 A 30.087746 13.730182 0 0 0 97.118103 136.76943 A 30.087746 13.730182 0 0 0 97.090715 136.19737 C 97.151145 136.17079 97.17346 136.11934 97.144975 136.03562 C 97.137408 136.01591 97.033246 135.702 97.016817 135.65529 A 30.087746 13.730182 0 0 0 96.362594 133.71225 C 92.786691 123.02365 75.156136 69.491167 75.156136 69.275358 C 75.156136 68.866168 81.66849 64.860074 84.548844 63.497416 C 88.242918 61.7498 90.787943 61.189723 94.324475 61.345093 C 96.799759 61.453833 97.756473 61.63696 100.55614 62.538818 C 106.07946 64.318046 107.70499 64.576538 113.38843 64.581588 C 119.00684 64.586588 120.8922 64.299729 125.66313 62.712451 C 130.37536 61.144715 135.07373 58.549166 139.34912 55.151672 L 141.37793 53.539368 L 141.2167 50.860978 C 140.7452 43.019954 136.69491 34.228367 129.74195 25.953455 L 128.89808 24.948865 z M 141.37587 55.672571 L 139.15585 57.378927 C 137.93493 58.317415 136.40056 59.417884 135.74572 59.824772 C 135.09087 60.231672 134.49556 60.644656 134.4228 60.742546 C 134.21361 61.023974 127.21255 64.383115 126.16077 64.706645 C 121.06018 66.275591 117.86488 66.682387 112.14044 66.491549 C 107.15991 66.325499 105.2326 65.983065 99.888993 64.314937 C 95.962563 63.089221 94.026251 62.807217 91.874495 63.147567 C 90.110889 63.426525 86.797803 64.627753 86.797803 64.988281 C 86.797803 65.408061 87.97188 68.292906 88.17808 68.379806 C 88.2939 68.428604 88.329405 68.564159 88.257145 68.681079 C 88.184845 68.797999 88.71144 70.484338 89.4271 72.428654 C 90.142758 74.37298 91.657268 78.543401 92.792786 81.696305 C 96.399432 91.274686 105.02235 113.50486 109.95039 126.54576 C 108.72657 125.9345 107.38526 125.37314 105.93927 124.87093 C 103.33932 123.96792 100.40767 123.25365 97.242126 122.77287 C 94.253597 122.31896 96.90103 122.60873 94.757007 122.42974 C 92.6346 122.25255 97.355587 129.80423 98.466858 137.30531 C 99.873861 146.80259 81.172951 148.51313 87.73418 149.53351 C 91.215705 150.07494 94.639579 149.25689 97.781628 148.74906 C 109.45815 146.86187 117.82175 141.77818 117.82175 135.80308 C 117.82175 134.39312 117.35512 133.03308 116.49005 131.75268 C 112.64645 121.8566 100.87883 91.055397 99.492118 87.002441 C 97.529762 81.254103 97.335035 80.512317 97.640035 79.942407 C 97.827485 79.592149 98.320834 79.164604 98.736092 78.992594 C 99.151352 78.820596 99.414459 78.55666 99.321069 78.40555 C 99.227669 78.25443 99.26872 78.203282 99.41202 78.291862 C 99.55535 78.380462 100.27976 78.292375 101.02226 78.096525 C 103.45418 77.454997 105.81574 77.366106 108.87036 77.800936 C 112.52439 78.321084 115.45794 78.322997 118.44703 77.807137 C 121.25599 77.321979 123.86865 76.62221 123.72733 76.39327 C 123.67133 76.30257 123.93706 76.209494 124.31799 76.186564 C 125.26045 76.129864 130.07272 73.642236 129.99413 73.252376 C 129.95953 73.080546 130.09376 73.002545 130.29231 73.078743 C 130.66922 73.223373 133.18031 71.266123 134.60419 69.718225 C 136.64187 67.503039 137.03374 66.993124 136.88312 66.749414 C 136.79472 66.606364 136.83503 66.559211 136.97303 66.644511 C 137.33899 66.870681 139.55836 63.044451 140.33614 60.846415 C 140.7036 59.807937 141.0876 58.218973 141.18983 57.315365 L 141.37587 55.672571 z " /><path
       style="fill:#000000;stroke:#000000;stroke-width:0.264583px;stroke-linecap:butt;stroke-linejoin:miter;stroke-opacity:1"
       d="m 77.152338,122.84131 c 7.658655,1.70818 7.713056,1.68065 10.981351,3.38127 -0.983466,-2.70758 -0.956218,-2.78727 -1.026859,-4.16838 -5.086634,-0.21192 -6.771317,0.28883 -9.954492,0.78711 z"
       id="path1454"
       sodipodi:nodetypes="cccc" /></g></svg>
