<?xml version="1.0" encoding="UTF-8" standalone="no"?>
<svg
   version="1.0"
   width="300.000000pt"
   height="426.000000pt"
   viewBox="0 0 300.000000 426.000000"
   preserveAspectRatio="xMidYMid meet"
   id="svg20"
   sodipodi:docname="Fist_.svg"
   inkscape:version="1.2.2 (b0a8486541, 2022-12-01)"
   xml:space="preserve"
   xmlns:inkscape="http://www.inkscape.org/namespaces/inkscape"
   xmlns:sodipodi="http://sodipodi.sourceforge.net/DTD/sodipodi-0.dtd"
   xmlns:xlink="http://www.w3.org/1999/xlink"
   xmlns="http://www.w3.org/2000/svg"
   xmlns:svg="http://www.w3.org/2000/svg"
   xmlns:rdf="http://www.w3.org/1999/02/22-rdf-syntax-ns#"
   xmlns:cc="http://creativecommons.org/ns#"
   xmlns:dc="http://purl.org/dc/elements/1.1/"><defs
     id="defs24"><g
       id="cone"><polygon
         transform="translate(0,-1) rotate(18)"
         points="0,0 0,1 .5,1"
         id="triangle" /><use
         id="use10"
         transform="scale(-1,1)"
         xlink:href="#triangle" /></g><g
       fill="white"
       transform="translate(1235,1050) scale(300.3)"
       id="star"><use
         id="use13"
         xlink:href="#cone" /><use
         id="use15"
         transform="rotate(72)"
         xlink:href="#cone" /><use
         id="use17"
         transform="rotate(-72)"
         xlink:href="#cone" /><use
         id="use19"
         transform="rotate(144)"
         xlink:href="#cone" /><use
         id="use21"
         transform="rotate(-144)"
         xlink:href="#cone" /></g><g
       id="even_star_row"><use
         xlink:href="#star"
         id="star 1 even row" /><use
         x="1235"
         xlink:href="#star"
         id="star 2 even row" /><use
         x="2470"
         xlink:href="#star"
         id="star 3 even row" /><use
         x="3705"
         xlink:href="#star"
         id="star 4 even row" /><use
         x="4940"
         xlink:href="#star"
         id="star 5 even row" /></g><g
       id="odd_star_row"><use
         y="-525"
         x="617.5"
         xlink:href="#even_star_row"
         id="last 5 stars odd row" /><use
         y="-525"
         x="-617.5"
         xlink:href="#star"
         id="star 1 odd row" /></g></defs><sodipodi:namedview
     pagecolor="#ffffff"
     bordercolor="#666666"
     borderopacity="1"
     objecttolerance="10"
     gridtolerance="10"
     guidetolerance="10"
     inkscape:pageopacity="0"
     inkscape:pageshadow="2"
     inkscape:window-width="1296"
     inkscape:window-height="704"
     id="namedview22"
     showgrid="false"
     inkscape:zoom="0.5875958"
     inkscape:cx="166.78131"
     inkscape:cy="366.74871"
     inkscape:window-x="70"
     inkscape:window-y="27"
     inkscape:window-maximized="1"
     inkscape:current-layer="svg20"
     inkscape:showpageshadow="2"
     inkscape:pagecheckerboard="0"
     inkscape:deskcolor="#d1d1d1"
     inkscape:document-units="pt"
     showguides="true" /><metadata
     id="metadata2">
Created by potrace 1.10, written by Peter Selinger 2001-2011
<rdf:RDF><cc:Work
     rdf:about=""><dc:format>image/svg+xml</dc:format><dc:type
       rdf:resource="http://purl.org/dc/dcmitype/StillImage" /></cc:Work></rdf:RDF></metadata><g
     style="fill:#ffffff"
     id="white stripes"
     transform="matrix(0.05384615,0,0,0.05384615,-878.72406,-194.74904)" /><rect
     style="fill:#ffffff;fill-opacity:1;fill-rule:evenodd;stroke-width:0.202623;stroke-linecap:butt;stroke-linejoin:miter;stroke-miterlimit:4;stroke-dasharray:none;stroke-dashoffset:0"
     id="rect2221"
     width="0"
     height="32.476742"
     x="-326.61945"
     y="-166.17928" /><rect
     style="fill:#ffffff;fill-opacity:1;fill-rule:evenodd;stroke-width:0.202623;stroke-linecap:butt;stroke-linejoin:miter;stroke-miterlimit:4;stroke-dasharray:none;stroke-dashoffset:0"
     id="rect2223"
     width="0"
     height="15.465115"
     x="-306.5148"
     y="-177.00485" /><path
     inkscape:connector-curvature="0"
     style="fill:#000000;fill-opacity:1;stroke:none;stroke-width:0;stroke-miterlimit:4;stroke-dasharray:none;stroke-opacity:1"
     d="m 62.577762,160.93397 c 0.974564,-8.8305 21.198474,-24.98017 26.107156,-31.86979 16.923062,-17.33785 6.319758,-15.41706 25.906962,-11.9046 1.18635,0 20.55916,15.1819 28.43138,19.11813 2.10585,1.05295 12.14193,2.69923 16.53679,4.66004 4.57464,2.04104 2.29987,12.62627 0.22664,13.52136 -10.57461,4.56545 -4.24331,3.46521 -17.98612,5.13125 -13.16693,1.59624 -17.11747,2.36676 -25.1907,-5.26363 -2.87097,-2.7135 -2.3583,-3.73168 -2.40923,-7.92436 -4.95218,1.61622 1.16869,8.67794 2.71776,11.08105 3.04166,4.71861 3.32679,4.3036 -5.25891,6.14472 -3.63064,1.09879 -40.392978,14.87543 -41.495696,15.06136 -8.66634,-11.71878 -6.956672,-16.53292 -7.586032,-17.75553 z m 61.254738,2.79742 c 5.70196,0.94206 16.75514,0.28781 5.26712,11.38768 11.2295,-11.63448 15.50596,-10.68128 22.32004,-11.11974 0.0129,0.24702 6.56654,10.46573 8.55755,13.8844 21.9665,27.37575 19.56382,26.28594 7.5159,53.58845 -2.33153,1.77784 -2.43291,1.65934 -5.17417,3.52036 -2.45002,1.66335 -20.1649,4.45763 -22.27982,4.59922 -29.27697,0.62555 -36.02891,-7.91606 -44.414651,-28.41133 C 88.67219,194.18862 74.725351,192.48592 71.426378,180.23668 74.88071,179.09289 117.44831,161.32263 123.8325,163.73139 Z m 18.07063,78.58621 c 10.45672,-0.20435 18.31149,-2.11792 27.52022,-8.208 -2.52649,36.09991 3.18355,50.68833 -6.07056,95.65729 m -3.49006,-0.0105 c -13.33146,-0.003 -37.88476,0.10468 -53.42746,0.0974 0,0 -0.1575,-16.47262 -0.0499,-23.62296 0.14328,-9.51771 5.26178,-17.95952 7.74252,-31.06852 -5.75033,-32.02249 -8.17731,-38.37445 -5.09029,-40.28709 10.30435,6.76021 10.30616,6.72044 26.51939,6.4392 m 71.10657,-3.85097 -6.21717,56.85864 c -0.354,28.3346 -0.3193,28.52628 -0.25582,35.84485 -13.85297,-0.12242 -23.26048,-0.0491 -29.72949,-0.28323 m -2.1037,-0.0405 c -0.77247,-1.10906 22.93498,-68.99737 31.57185,-91.49451 0.92232,-2.40242 -14.22121,5.74913 -25.79402,-4.11655 m 20.54744,2.22491 c 0.15488,-0.34791 -12.94494,2.19193 -22.39004,-7.86382 19.6431,-17.94493 7.70439,-35.65542 -4.54317,-48.17862 -0.52779,-0.53923 -12.64233,-15.73675 -8.10601,-15.13357 5.29837,0.70452 11.51331,8.70102 19.60144,12.32133 15.95747,7.14277 13.14819,7.32582 21.66118,16.04579 5.25541,5.38317 6.42616,6.97419 7.4764,6.97419 1.72464,0 2.80541,0.16303 8.72209,-4.26962 5.01567,-3.75763 9.29687,-11.346 13.83309,-13.34514 -0.50767,6.06249 -0.38161,11.64233 -2.5932,16.41668 -7.01518,15.14431 -7.35954,14.93429 -15.03943,22.91248 0,0 -3.28991,6.09179 -5.81738,11.99716 m -13.03639,-53.6472 c 10.00843,-16.30349 15.3044,-25.04717 28.97193,-33.59726 12.41273,4.51214 10.65992,14.57912 12.49398,22.47754 -1.46159,6.83529 -10.7582,16.29423 -25.6775,26.77163 -3.29113,-4.66922 -10.25421,-9.35022 -15.78841,-15.65191 z m -26.09813,-17.43093 c -1.01688,-1.0166 1.49016,-7.6888 7.36865,-13.97317 16.29056,-28.31388 20.44595,-31.92441 22.02879,-31.01906 16.09492,5.60555 25.97361,19.75862 21.63375,24.10325 -15.09319,20.49961 -9.56704,14.65674 -28.59258,37.10875 -8.86912,-0.26929 -13.38687,-9.42556 -22.43861,-16.21977 z m -3.4036,-19.16095 c -2.25607,-6.33397 -2.6854,-5.32835 -10.09376,-8.60069 -4.92715,-2.42274 -12.92352,-4.52939 -13.05337,-5.23412 -0.21357,-1.15933 20.45623,-33.555994 22.13374,-34.668649 18.18325,0.853246 27.26416,8.363729 27.78887,22.695289 -6.80198,11.16394 -15.91082,26.08971 -23.94912,36.73679 -4.52882,6.01597 -3.4508,-0.93735 -2.82636,-10.92862 z m -53.1464,-35.51261 c 2.99099,-5.81577 10.78404,-24.450868 19.29488,-25.718476 10.4971,0.747925 26.79403,9.164139 25.25952,15.382308 -0.60145,2.093708 -16.84108,30.192158 -17.88284,30.572508 -13.93458,-9.24779 -16.64347,-11.93964 -26.67156,-20.23634 z"
     id="path5187"
     sodipodi:nodetypes="cccssssscsccccccccscscccccccsccccccccsccccscssscsscccccccccccccccccccccccc" /><path
     style="fill:#000000;stroke-width:0.24"
     d="m 34.294538,400.84826 c 0.0531,-3.85651 0.21163,-7.37637 0.3595,-7.98 0.14552,-0.594 0.42101,-1.836 0.61221,-2.76 0.19121,-0.924 0.68915,-3.246 1.10654,-5.16 0.41739,-1.914 0.9794,-4.506 1.2489,-5.76 0.2695,-1.254 0.57685,-2.658 0.683,-3.12 0.10615,-0.462 0.35418,-1.596 0.55118,-2.52 0.197,-0.924 0.59685,-2.76 0.88856,-4.08 0.29171,-1.32 0.6177,-2.832 0.72442,-3.36 0.10672,-0.528 0.53703,-2.526 0.95625,-4.44 0.41922,-1.914 0.90112,-4.128 1.07089,-4.92 0.16977,-0.792 0.65698,-3.006 1.08269,-4.92 0.42571,-1.914 0.86982,-3.966 0.98692,-4.56 0.1171,-0.594 0.45813,-2.214 0.75786,-3.6 l 0.54495,-2.52 7.84585,-0.0633 7.84585,-0.0633 0.27411,1.01796 c 0.28339,1.05244 0.77773,3.26297 1.19484,5.34298 0.2684,1.33842 1.70624,7.98209 2.44245,11.28559 0.26476,1.188 0.56547,2.592 0.66826,3.12 0.10278,0.528 0.47099,2.256 0.81823,3.84 0.34724,1.584 0.84305,3.852 1.1018,5.04 0.25875,1.188 0.69446,3.186 0.96824,4.44 0.27378,1.254 0.70615,3.252 0.96083,4.44 0.25468,1.188 0.62904,2.916 0.83192,3.84 0.88228,4.01837 1.33572,6.11585 1.68624,7.8 0.43934,2.11093 1.73646,8.02827 2.65679,12.12 0.35627,1.584 0.69886,3.18286 0.76131,3.55303 0.0996,0.59036 0.20577,0.66406 0.86439,0.6 l 0.75085,-0.073 0.0608,-33.18 0.0608,-33.18 h 5.99916 5.99915 v 17.86585 c 0,10.41213 0.0907,17.92188 0.21738,18.00018 0.11956,0.0739 0.38101,-0.32474 0.58101,-0.88584 0.59573,-1.67139 2.31794,-6.44194 2.83758,-7.86018 0.26601,-0.726 0.898367,-2.508 1.405227,-3.96 0.50688,-1.452 1.20871,-3.396 1.55964,-4.32 0.35094,-0.924 0.78183,-2.112 0.95755,-2.64 0.17572,-0.528 0.83038,-2.364 1.45479,-4.08 1.16684,-3.20667 3.218405,-8.96016 3.914375,-10.97764 l 0.39245,-1.13764 6.04186,-0.002 6.04187,-0.002 0.0948,3.42 c 0.0521,1.881 0.11175,16.704 0.13244,32.94 0.0207,16.236 0.0402,29.655 0.0434,29.82 0.005,0.23231 1.44073,0.3 6.36569,0.3 h 6.36 v -28.41432 c 0,-25.68875 -0.0364,-28.4283 -0.37963,-28.56 -0.2088,-0.0801 -2.62206,-0.14568 -5.3628,-0.14568 -4.52282,0 -5.01986,-0.0405 -5.38037,-0.4389 -0.33805,-0.37354 -0.3972,-1.0704 -0.3972,-4.68 v -4.2411 h 17.64001 17.64 v 4.43156 c 0,4.06464 -0.0367,4.45121 -0.44358,4.66895 -0.24477,0.131 -2.68663,0.25404 -5.44834,0.27453 -2.75262,0.0204 -5.14501,0.0909 -5.31642,0.15672 -0.25311,0.0971 -0.31166,5.45702 -0.31166,28.53392 v 28.41432 h 6.84 6.84 v -27.10262 -27.10258 l 0.64897,-0.51048 c 0.62207,-0.48932 0.85549,-0.50745 5.63195,-0.43742 4.4036,0.0646 5.03275,0.12289 5.41103,0.5016 0.40492,0.40537 0.43145,1.89356 0.49109,27.54 l 0.0631,27.11146 h 1.07696 1.07697 v -33.24 -33.24 h 17.64 17.64 v 4.21578 c 0,2.44708 -0.10424,4.41054 -0.24845,4.68 -0.24009,0.44861 -0.61883,0.46422 -11.26037,0.46422 -6.05656,0 -11.18615,0.0669 -11.3991,0.14857 -0.34616,0.13284 -0.38451,0.99064 -0.36201,8.09808 0.0139,4.37223 0.0847,8.24737 0.15754,8.61143 l 0.13233,0.66192 h 8.3166 c 7.13874,0 8.39214,0.0529 8.85,0.37361 0.52293,0.36627 0.5334,0.47439 0.5334,5.50639 0,5.032 -0.0104,5.14012 -0.5334,5.50639 -0.45786,0.3207 -1.71122,0.37361 -8.84947,0.37361 h -8.31606 l -0.13832,1.26 c -0.1677,1.5276 -0.15897,25.8306 0.009,26.26945 0.0934,0.24337 1.50952,0.31055 6.54625,0.31055 h 6.42708 l 0.11838,-0.66 c 0.0651,-0.363 0.35684,-1.74 0.6483,-3.06 0.29145,-1.32 0.78312,-3.588 1.09259,-5.04 0.30946,-1.452 0.79107,-3.666 1.07023,-4.92 0.27915,-1.254 0.60822,-2.766 0.73127,-3.36 0.12304,-0.594 0.44842,-2.106 0.72307,-3.36 1.0998,-5.02154 1.71798,-7.87976 2.05032,-9.48 0.1919,-0.924 0.46254,-2.166 0.60141,-2.76 0.53863,-2.30381 0.72283,-3.14594 1.65358,-7.56 0.52884,-2.508 1.11563,-5.208 1.30397,-6 0.34529,-1.45195 0.69723,-3.08426 1.70763,-7.92 0.49609,-2.37427 1.23096,-5.77158 1.81701,-8.4 0.11771,-0.528 0.34963,-1.608 0.51537,-2.4 l 0.30134,-1.44 7.84939,-0.0633 7.84938,-0.0633 0.23882,0.90327 c 0.20956,0.79261 0.46758,1.9533 1.45457,6.54326 0.12773,0.594 0.61725,2.862 1.08784,5.04 0.83467,3.8631 1.15589,5.36127 1.56952,7.32 0.1115,0.528 0.41855,1.932 0.68233,3.12 0.26377,1.188 0.65401,2.97 0.86719,3.96 0.21318,0.99 0.48311,2.232 0.59986,2.76 0.45615,2.06298 1.16307,5.34827 1.44599,6.72 0.16336,0.792 0.44019,2.034 0.61518,2.76 0.17499,0.726 0.59385,2.67 0.93079,4.32 0.33694,1.65 0.83381,3.972 1.10414,5.16 0.27034,1.188 0.59002,2.646 0.7104,3.24 0.12038,0.594 0.38868,1.836 0.59622,2.76 0.20754,0.924 0.64509,2.976 0.97233,4.56 0.32724,1.584 0.83049,3.879 1.11834,5.1 l 0.52337,2.22 2.17216,-0.0126 c 2.12047,-0.0123 2.1579,-0.0223 1.57218,-0.42 -1.41214,-0.95887 -2.61386,-2.29795 -3.32285,-3.70266 -1.34681,-2.66843 -1.47715,-3.61691 -1.47715,-10.74801 0,-6.14103 0.023,-6.4721 0.46422,-6.70829 0.27873,-0.14917 2.52694,-0.24844 5.62638,-0.24844 5.06237,0 5.16939,0.0103 5.53578,0.5334 0.30231,0.43162 0.37362,1.3063 0.37362,4.58373 0,6.19523 0.18934,6.41693 5.44808,6.37895 1.82155,-0.0132 3.5807,-0.0987 3.90922,-0.19019 0.32852,-0.0915 0.84321,-0.53117 1.14378,-0.97718 0.53941,-0.80043 0.54566,-0.89461 0.48269,-7.27904 l -0.0637,-6.46813 -1.92,-0.66853 c -1.056,-0.36769 -5.9399,-1.98227 -10.85312,-3.58796 -7.87769,-2.5745 -9.00484,-3.00465 -9.54,-3.64066 l -0.6069,-0.72122 v -12.44987 c 0,-13.63351 0.0139,-13.79367 1.44858,-16.72067 0.43601,-0.88951 1.1732,-1.87831 1.83402,-2.45999 l 1.10498,-0.97264 h 13.26397 13.26397 l 1.13984,1.26 c 1.26323,1.39641 2.3055,3.47354 2.71557,5.41181 0.38181,1.80472 0.3658,13.77545 -0.0189,14.16019 -0.20674,0.20674 -1.79432,0.288 -5.6264,0.288 -5.24447,0 -5.34496,-0.009 -5.712,-0.5334 -0.30259,-0.43201 -0.37368,-1.31018 -0.37398,-4.62 -5.5e-4,-6.11304 -0.24961,-6.4223 -5.27962,-6.55592 -2.75039,-0.0731 -3.08986,-0.0336 -4.08,0.47481 -0.80248,0.41202 -1.15361,0.77036 -1.36646,1.39451 -0.41501,1.21699 -0.42703,13.29495 -0.0136,13.60929 0.39751,0.30218 0.91826,0.48098 11.82,4.05844 8.09828,2.65749 9.46514,3.17484 10.14,3.8379 l 0.78,0.76637 -0.003,12.324 c -0.003,13.03655 -0.0245,13.32881 -1.16712,15.91202 -0.69767,1.5772 -1.50076,2.5954 -2.95162,3.74224 l -1.20151,0.94974 h 3.72729 3.72729 l 0.0743,-4.67199 c 0.0652,-4.102 0.1265,-4.72421 0.50243,-5.1 0.3643,-0.36417 0.96392,-0.44024 4.02001,-0.51002 l 3.59198,-0.082 v 5.30201 5.30201 h -124.09 -124.090392 z m 29.44583,6.10914 c 0,-0.30297 -0.20638,-1.57197 -0.45863,-2.82 -0.25224,-1.24803 -0.76011,-3.80814 -1.12858,-5.68914 l -0.66996,-3.42 h -7.73524 c -8.64699,0 -7.80655,-0.18643 -8.11451,1.8 -0.0819,0.528 -0.25439,1.446 -0.38341,2.04 -0.51812,2.38534 -1.42967,7.52878 -1.42967,8.06695 v 0.57305 h 9.96 9.96 z m 39.360002,-17.80914 c 0,-12.08 -0.0821,-18.36 -0.24,-18.36 -0.132,0 -0.24,0.0419 -0.24,0.0931 0,0.0512 -0.38638,1.15822 -0.85861,2.46 -0.47223,1.30178 -1.39929,3.87888 -2.060135,5.72688 -2.3895,6.68205 -4.31067,11.99955 -6.069717,16.8 -0.93161,2.54239 -2.44191,6.79609 -2.76942,7.8 -0.10765,0.33 -0.47525,1.329 -0.81687,2.22 l -0.62112,1.62 h 6.837927 6.837945 z m 122.64001,17.85427 c 0,-0.44338 -1.15761,-6.65911 -1.97305,-10.59427 l -0.28597,-1.38 h -7.7193 -7.71931 l -0.26728,1.02 c -0.147,0.561 -0.38106,1.722 -0.52011,2.58 -0.13907,0.858 -0.35604,2.1 -0.48217,2.76 -0.12613,0.66 -0.39922,2.118 -0.60687,3.24 -0.20765,1.122 -0.43171,2.229 -0.49792,2.46 -0.11328,0.39525 0.47454,0.42 9.97581,0.42 h 10.09617 z M 59.180368,384.33814 c 0,-0.20356 -0.15146,-1.14856 -0.33659,-2.1 -0.18512,-0.95143 -0.57237,-3.02588 -0.86056,-4.60988 -0.28819,-1.584 -0.7779,-4.23 -1.08824,-5.88 -0.80917,-4.30207 -1.74879,-9.39544 -2.16949,-11.76 -0.80724,-4.5372 -0.90061,-4.91283 -1.09994,-4.42511 -0.10455,0.25581 -0.41568,1.70711 -0.6914,3.22511 -0.27571,1.518 -0.70653,3.894 -0.95736,5.28 -2.13086,11.77412 -3.37553,18.50979 -3.56894,19.31368 -0.1262,0.52453 -0.17763,1.03753 -0.1143,1.14 0.0633,0.10248 2.53877,0.18632 5.50098,0.18632 4.69285,0 5.38584,-0.0476 5.38584,-0.37012 z m 161.998422,0.19012 c -0.003,-0.34471 -1.22138,-7.07959 -3.00654,-16.62 -0.60513,-3.234 -1.19228,-6.474 -1.30478,-7.2 -0.1125,-0.726 -0.37604,-2.13 -0.58562,-3.12 -0.2096,-0.99 -0.38445,-1.908 -0.38858,-2.04 -0.0211,-0.6742 -0.4642,0.72006 -0.80095,2.52 -0.20991,1.122 -0.69963,3.714 -1.08828,5.76 -0.59341,3.12405 -2.7336,14.75116 -3.40158,18.48 -0.10641,0.594 -0.19991,1.377 -0.20778,1.74 l -0.0143,0.66 h 5.4 c 2.97,0 5.39929,-0.081 5.39841,-0.18 z m 53.41519,10.2066 c -0.33269,-0.47498 -0.37361,-3.44549 -0.37361,-27.12 v -26.5866 h 4.08001 4.08 v 27.12 27.12 h -3.7064 c -3.558,0 -3.72134,-0.0214 -4.08,-0.5334 z m -120.24,-44.88 c -0.30314,-0.4328 -0.37361,-1.31544 -0.37361,-4.68 v -4.1466 h 6.12001 6.11999 v 3.97192 c 0,3.0909 -0.0812,4.12898 -0.36616,4.68 l -0.36617,0.70808 h -5.38022 c -5.28771,0 -5.38666,-0.009 -5.75384,-0.5334 z"
     id="path845" /></svg>
