<?xml version="1.0" encoding="UTF-8" standalone="no"?>
<svg
   version="1.0"
   width="300.000000pt"
   height="426.000000pt"
   viewBox="0 0 300.000000 426.000000"
   preserveAspectRatio="xMidYMid meet"
   id="svg20"
   sodipodi:docname="Fist2.svg"
   inkscape:version="1.2.2 (b0a8486541, 2022-12-01)"
   xml:space="preserve"
   xmlns:inkscape="http://www.inkscape.org/namespaces/inkscape"
   xmlns:sodipodi="http://sodipodi.sourceforge.net/DTD/sodipodi-0.dtd"
   xmlns:xlink="http://www.w3.org/1999/xlink"
   xmlns="http://www.w3.org/2000/svg"
   xmlns:svg="http://www.w3.org/2000/svg"
   xmlns:rdf="http://www.w3.org/1999/02/22-rdf-syntax-ns#"
   xmlns:cc="http://creativecommons.org/ns#"
   xmlns:dc="http://purl.org/dc/elements/1.1/"><defs
     id="defs24"><g
       id="cone"><polygon
         transform="translate(0,-1) rotate(18)"
         points="0,0 0,1 .5,1"
         id="triangle" /><use
         id="use10"
         transform="scale(-1,1)"
         xlink:href="#triangle" /></g><g
       fill="white"
       transform="translate(1235,1050) scale(300.3)"
       id="star"><use
         id="use13"
         xlink:href="#cone" /><use
         id="use15"
         transform="rotate(72)"
         xlink:href="#cone" /><use
         id="use17"
         transform="rotate(-72)"
         xlink:href="#cone" /><use
         id="use19"
         transform="rotate(144)"
         xlink:href="#cone" /><use
         id="use21"
         transform="rotate(-144)"
         xlink:href="#cone" /></g><g
       id="even_star_row"><use
         xlink:href="#star"
         id="star 1 even row" /><use
         x="1235"
         xlink:href="#star"
         id="star 2 even row" /><use
         x="2470"
         xlink:href="#star"
         id="star 3 even row" /><use
         x="3705"
         xlink:href="#star"
         id="star 4 even row" /><use
         x="4940"
         xlink:href="#star"
         id="star 5 even row" /></g><g
       id="odd_star_row"><use
         y="-525"
         x="617.5"
         xlink:href="#even_star_row"
         id="last 5 stars odd row" /><use
         y="-525"
         x="-617.5"
         xlink:href="#star"
         id="star 1 odd row" /></g></defs><sodipodi:namedview
     pagecolor="#ffffff"
     bordercolor="#666666"
     borderopacity="1"
     objecttolerance="10"
     gridtolerance="10"
     guidetolerance="10"
     inkscape:pageopacity="0"
     inkscape:pageshadow="2"
     inkscape:window-width="1296"
     inkscape:window-height="704"
     id="namedview22"
     showgrid="false"
     inkscape:zoom="1.6619719"
     inkscape:cx="157.04237"
     inkscape:cy="302.35168"
     inkscape:window-x="70"
     inkscape:window-y="27"
     inkscape:window-maximized="1"
     inkscape:current-layer="svg20"
     inkscape:showpageshadow="2"
     inkscape:pagecheckerboard="0"
     inkscape:deskcolor="#d1d1d1"
     inkscape:document-units="pt"
     showguides="true"><sodipodi:guide
       position="117.74676,115.51871"
       orientation="0,-1"
       id="guide1721"
       inkscape:locked="false" /></sodipodi:namedview><metadata
     id="metadata2">
Created by potrace 1.10, written by Peter Selinger 2001-2011
<rdf:RDF><cc:Work
     rdf:about=""><dc:format>image/svg+xml</dc:format><dc:type
       rdf:resource="http://purl.org/dc/dcmitype/StillImage" /></cc:Work></rdf:RDF></metadata><g
     style="fill:#ffffff"
     id="white stripes"
     transform="matrix(0.05384615,0,0,0.05384615,-878.72406,-194.74904)" /><rect
     style="fill:#ffffff;fill-opacity:1;fill-rule:evenodd;stroke-width:0.202623;stroke-linecap:butt;stroke-linejoin:miter;stroke-miterlimit:4;stroke-dasharray:none;stroke-dashoffset:0"
     id="rect2221"
     width="0"
     height="32.476742"
     x="-326.61945"
     y="-166.17928" /><rect
     style="fill:#ffffff;fill-opacity:1;fill-rule:evenodd;stroke-width:0.202623;stroke-linecap:butt;stroke-linejoin:miter;stroke-miterlimit:4;stroke-dasharray:none;stroke-dashoffset:0"
     id="rect2223"
     width="0"
     height="15.465115"
     x="-306.5148"
     y="-177.00485" /><path
     style="fill:#000000;fill-opacity:1;stroke:none;stroke-width:0;stroke-miterlimit:4;stroke-dasharray:none;stroke-opacity:1"
     d="m 26.56576,195.86379 c 1.548423,-3.0108 5.582853,-12.65812 9.988879,-13.31435 5.434305,0.3872 13.871157,4.74423 13.076748,7.96335 -0.311369,1.08391 -8.718557,15.63036 -9.257872,15.82726 -7.213873,-4.78754 -8.616254,-6.1811 -13.807755,-10.47626 z"
     id="path1867" /><path
     style="fill:#000000;fill-opacity:1;stroke:none;stroke-width:0;stroke-miterlimit:4;stroke-dasharray:none;stroke-opacity:1"
     d="m 54.079432,214.24889 c -1.167958,-3.27907 -1.39022,-2.75846 -5.225497,-4.45254 -2.550765,-1.25424 -6.690452,-2.34484 -6.757675,-2.70968 -0.110565,-0.60018 10.590104,-17.3718 11.458544,-17.94781 9.413392,0.44172 14.114541,4.32986 14.386181,11.74925 -3.521356,5.77953 -8.236964,13.50654 -12.398359,19.01848 -2.34455,3.11445 -1.786464,-0.48526 -1.463194,-5.6577 z"
     id="path1865" /><path
     style="fill:#000000;fill-opacity:1;stroke:none;stroke-width:0;stroke-miterlimit:4;stroke-dasharray:none;stroke-opacity:1"
     d="m 55.841461,224.16844 c -0.526435,-0.52629 0.77145,-3.98046 3.814719,-7.23386 8.433555,-14.65797 10.584783,-16.52713 11.404213,-16.05843 8.332272,2.90197 13.446429,10.22895 11.199701,12.47815 -7.813681,10.61256 -4.952816,7.58773 -14.802259,19.21104 -4.591506,-0.13941 -6.930326,-4.87957 -11.616374,-8.3969 z"
     id="path1863" /><path
     style="fill:#000000;fill-opacity:1;stroke:none;stroke-width:0;stroke-miterlimit:4;stroke-dasharray:none;stroke-opacity:1"
     d="m 69.352354,233.19236 c 5.181322,-8.44025 7.923023,-12.96682 14.998646,-17.39316 6.42602,2.33591 5.5186,7.54754 6.46808,11.63652 -0.75666,3.5386 -5.56947,8.43546 -13.293133,13.85956 -1.703804,-2.41723 -5.308561,-4.84057 -8.173593,-8.10292 z"
     id="path1861" /><path
     style="fill:#000000;fill-opacity:1;stroke:none;stroke-width:0;stroke-miterlimit:4;stroke-dasharray:none;stroke-opacity:1"
     d="m 69.472159,262.06443 c 0.08018,-0.18011 -6.701541,1.13475 -11.59123,-4.07107 10.16915,-9.29001 3.98853,-18.45866 -2.35198,-24.94187 -0.273235,-0.27916 -6.544881,-8.14685 -4.196447,-7.83458 2.742944,0.36472 5.960392,4.50448 10.147583,6.3787 8.261115,3.69778 6.806763,3.79254 11.213902,8.30683 2.720704,2.78685 3.326796,3.61051 3.870501,3.61051 0.892839,0 1.452349,0.0844 4.515389,-2.21036 2.596592,-1.94531 4.812953,-5.87378 7.161333,-6.90872 -0.26282,3.13852 -0.19756,6.02718 -1.34249,8.49884 -3.631728,7.84015 -3.810002,7.73142 -7.785849,11.8617 0,0 -1.703172,3.15369 -3.011633,6.21088"
     id="path1859" /><path
     id="path1857"
     style="fill:#000000;fill-opacity:1;stroke:none;stroke-width:0;stroke-miterlimit:4;stroke-dasharray:none;stroke-opacity:1"
     d="m 58.835449,260.91211 -3.782411,42.79609 -1.191344,6.81607 c 11.04741,-0.0547 11.290427,-0.009 18.462036,0.0533 -0.03286,-3.78879 -0.05143,-3.88797 0.131836,-18.55664 l 3.219727,-29.43604 -0.433594,1.03565 c 0.123185,-0.31377 0.26819,-0.67216 0.37793,-0.95801 0.477479,-1.24372 -10.792997,3.35691 -16.78418,-1.75049 z"
     sodipodi:nodetypes="cccccccscc" /><path
     id="path1853"
     style="fill:#000000;fill-opacity:1;stroke:none;stroke-width:0;stroke-miterlimit:4;stroke-dasharray:none;stroke-opacity:1"
     d="M 56.39502 260.84912 C 51.627708 264.00193 44.145323 264.45525 38.731934 264.56104 L 38.737793 264.58008 C 30.485826 264.72335 30.4381 264.72601 25.133789 261.24609 C 23.535655 262.23625 24.792128 265.52467 27.769043 282.10254 C 26.484777 288.889 23.83541 293.25926 23.76123 298.18652 C 23.705521 301.88822 23.786133 310.41504 23.786133 310.41504 C 31.821513 310.41903 44.500659 310.36339 51.408691 310.36523 L 51.411621 310.37402 C 51.412246 310.37099 51.412461 310.36827 51.413086 310.36523 C 51.421402 310.36524 51.437014 310.36523 51.445313 310.36523 L 51.42627 310.29785 C 56.19824 287.07973 55.088554 279.51663 56.39502 260.84912 z " /><path
     id="path1857-3"
     style="fill:#000000;fill-opacity:1;stroke:none;stroke-width:0;stroke-miterlimit:4;stroke-dasharray:none;stroke-opacity:1"
     d="m 159.2027,261.50936 -3.78242,42.79609 -1.19134,6.81607 c 11.04741,-0.0547 11.29043,-0.009 18.46204,0.0533 -0.0329,-3.78879 -0.0514,-3.88797 0.13183,-18.55664 l 3.21973,-29.43604 -0.43359,1.03565 c 0.12318,-0.31377 0.26819,-0.67216 0.37793,-0.95801 0.47747,-1.24372 -10.793,3.35691 -16.78418,-1.75049 z"
     sodipodi:nodetypes="cccccccscc" /><path
     id="path1853-6"
     style="fill:#000000;fill-opacity:1;stroke:none;stroke-width:0;stroke-miterlimit:4;stroke-dasharray:none;stroke-opacity:1"
     d="m 156.76227,261.44637 c -4.76732,3.15281 -12.2497,3.60613 -17.66309,3.71192 l 0.006,0.019 c -8.25197,0.14327 -8.29969,0.14593 -13.604,-3.33399 -1.59814,0.99016 -0.34166,4.27858 2.63525,20.85645 -1.28427,6.78646 -3.93363,11.15672 -4.00781,16.08398 -0.0557,3.7017 0.0249,12.22852 0.0249,12.22852 8.03538,0.004 20.71452,-0.0516 27.62256,-0.0498 l 0.003,0.009 c 6.2e-4,-0.003 8.4e-4,-0.006 0.002,-0.009 0.008,1e-5 0.0239,0 0.0322,0 l -0.019,-0.0674 c 4.77197,-23.21812 3.66228,-30.78122 4.96875,-49.44873 z" /><path
     style="fill:#000000;fill-opacity:1;stroke:none;stroke-width:0;stroke-miterlimit:4;stroke-dasharray:none;stroke-opacity:1"
     d="m 32.79333,224.41427 c 2.951881,0.4877 8.674066,0.149 2.726766,5.89536 5.813465,-6.02312 8.027371,-5.52966 11.554992,-5.75665 0.0067,0.12789 3.39947,5.41807 4.430207,7.1879 11.371965,14.17231 10.128108,13.60812 3.89095,27.74252 -1.207023,0.92038 -1.259507,0.85903 -2.678646,1.82247 -1.268365,0.86111 -10.439284,2.3077 -11.534169,2.381 -15.156565,0.32384 -18.652016,-4.09811 -22.993279,-14.70843 -3.599166,-8.79659 -10.819386,-9.67807 -12.527251,-16.01945 1.788294,-0.59213 23.825362,-9.79172 27.13043,-8.54472 z"
     id="path1849" /><path
     style="fill:#000000;fill-opacity:1;stroke:none;stroke-width:0;stroke-miterlimit:4;stroke-dasharray:none;stroke-opacity:1"
     d="m 1.082009,222.96606 c 0.504528,-4.57151 10.974361,-12.93213 13.515565,-16.49886 8.760999,-8.97573 3.271713,-7.98134 13.411926,-6.16296 0.614168,0 10.643391,7.85961 14.718806,9.89738 1.09019,0.54511 6.285827,1.39738 8.561027,2.41248 2.368272,1.05664 1.190633,6.53657 0.117331,6.99995 -5.474431,2.36352 -2.196744,1.79393 -9.311339,2.65643 -6.816465,0.82637 -8.861643,1.22526 -13.04112,-2.72496 -1.486289,-1.40477 -1.220882,-1.93188 -1.247248,-4.10241 -2.563723,0.83671 0.605026,4.49253 1.406973,5.73661 1.574654,2.44281 1.722265,2.22796 -2.722516,3.1811 -1.879567,0.56884 -20.911276,7.70095 -21.482148,7.7972 -4.486528,-6.06676 -3.60144,-8.55902 -3.927257,-9.19196 z"
     id="path5187" /><path
     style="fill:#000000;fill-opacity:1;stroke:none;stroke-width:0;stroke-miterlimit:4;stroke-dasharray:none;stroke-opacity:1"
     d="m 220.49147,206.85821 c 0.67253,-1.3077 -0.80122,-16.51926 -2.12907,-23.0696 0.10061,-5.46164 -1.24393,-12.56238 -0.26818,-17.37456 -1.48056,-5.84008 -0.18961,-9.92302 1.30409,-14.09196 5.53044,-1.72541 8.70326,-4.1123 13.26222,4.92857 -0.0268,3.61871 2.55817,8.72634 1.18086,12.85386 0.81688,3.32076 2.12411,12.99972 1.80886,14.42025 1.30185,1.02244 6.00522,24.36896 5.29917,24.94002 -12.96303,0.3235 -15.26645,1.68858 -20.45795,-2.60658 z"
     id="path1761"
     sodipodi:nodetypes="ccccccccc" /><path
     style="fill:#000000;fill-opacity:1;stroke:none;stroke-width:0;stroke-miterlimit:4;stroke-dasharray:none;stroke-opacity:1"
     d="m 251.5275,209.74958 c -2.55077,-1.25424 -6.69046,-2.34484 -6.75768,-2.70968 -0.11056,-0.60018 -2.75545,-13.69878 -1.88701,-14.27479 5.63468,-5.30589 12.87576,-4.78638 18.09563,1.36185 -3.52136,5.77953 -0.92002,10.48542 -2.31909,16.87909 -4.28714,0.44186 -4.47299,0.20058 -7.13185,-1.25647 z"
     id="path1759"
     sodipodi:nodetypes="cscccc" /><path
     style="fill:#000000;fill-opacity:1;stroke:none;stroke-width:0;stroke-miterlimit:4;stroke-dasharray:none;stroke-opacity:1"
     d="m 256.24892,229.4939 c 0.17622,-2.95768 0.68683,-1.90132 1.68109,-3.41088 1.61273,-2.44856 3.51977,-5.08182 3.20006,-9.67295 -0.12481,-1.79245 -2.05902,-3.55649 -0.67273,-6.95303 0.91509,-7.94774 -0.70983,-8.38408 1.70377,-13.53864 9.64723,-1.54155 11.71831,0.33262 16.50446,3.91082 -2.52617,10.68613 -1.2011,19.91488 -9.07147,29.71158 -4.38871,4.17649 -13.70015,2.05577 -13.34518,-0.0469 z"
     id="path1757"
     sodipodi:nodetypes="cssccccc" /><path
     id="path1755"
     style="fill:#000000;fill-opacity:1;stroke:none;stroke-width:0;stroke-miterlimit:4;stroke-dasharray:none;stroke-opacity:1"
     d="m 291.11507,174.26524 c -6.1874,2.05783 -5.84336,3.65893 -5.80106,10.03067 -2.05634,6.07049 -4.20632,17.05076 -6.55864,24.8413 -0.0151,-0.002 -0.0434,-0.0147 -0.0557,-0.0147 -0.54371,0 -2.21697,16.54062 -5.35987,18.84082 -4.02798,2.94797 -1.39397,2.31826 -10.08695,8.5277 -4.1872,-1.87422 -3.95418,-2.55433 -6.69713,-2.91905 -2.34843,-0.31227 -0.12685,0.65418 0.14639,0.93334 6.3405,6.4832 10.48551,12.71678 2.91111,23.27954 7.17077,3.6987 7.21315,3.79972 11.91532,2.85768 0,0 4.90617,-0.98292 6.09106,-1.2203 1.18489,-0.23738 0.90892,-1.37469 2.66649,-3.21526 1.75757,-1.84057 5.43217,-6.17939 7.78565,-11.86084 1.04247,-2.51659 3.53213,-20.03529 2.59777,-22.33685 1.04849,-2.18694 2.29627,-8.25053 0.7494,-9.15729 4.08948,-2.87645 5.62754,-19.12796 5.29342,-23.68323 3.32685,-10.07512 0.94748,-13.74066 -5.59726,-14.90353 z"
     sodipodi:nodetypes="cccsscsccszzscccc" /><path
     id="path1755-6"
     style="fill:#000000;fill-opacity:1;stroke:none;stroke-width:0;stroke-miterlimit:4;stroke-dasharray:none;stroke-opacity:1"
     d="m 189.459,176.10906 c -6.1874,2.05783 -5.84336,3.65893 -5.80106,10.03067 -2.05634,6.07049 -4.20632,17.05076 -6.55864,24.8413 -0.0151,-0.002 -0.0434,-0.0147 -0.0557,-0.0147 -0.54371,0 -2.21697,16.54062 -5.35987,18.84082 -4.02798,2.94797 -1.39397,2.31826 -10.08695,8.5277 -4.1872,-1.87422 -3.95418,-2.55433 -6.69713,-2.91905 -2.34843,-0.31227 -0.12685,0.65418 0.14639,0.93334 6.3405,6.4832 10.48551,12.71678 2.91111,23.27954 7.17077,3.6987 7.21315,3.79972 11.91532,2.85768 0,0 4.90617,-0.98292 6.09106,-1.2203 1.18489,-0.23738 0.90892,-1.37469 2.66649,-3.21526 1.75757,-1.84057 5.43217,-6.17939 7.78565,-11.86084 1.04247,-2.51659 3.53213,-20.03529 2.59777,-22.33685 1.04849,-2.18694 2.29627,-8.25053 0.7494,-9.15729 4.08948,-2.87645 5.62754,-19.12796 5.29342,-23.68323 3.32685,-10.07512 0.94748,-13.74066 -5.59726,-14.90353 z"
     sodipodi:nodetypes="cccsscsccszzscccc" /><path
     style="fill:#000000;fill-opacity:1;stroke:none;stroke-width:0;stroke-miterlimit:4;stroke-dasharray:none;stroke-opacity:1"
     d="m 234.75573,227.94595 c 2.95188,0.4877 2.06524,-0.0129 3.43793,2.31691 4.27523,3.67885 7.38791,3.57253 10.91553,3.34554 0.007,0.12789 4.57471,-1.20592 5.60544,0.56388 8.83921,12.70043 9.36669,12.76238 3.35517,25.26432 -1.20702,0.92038 -1.2595,0.85903 -2.67864,1.82247 -1.26837,0.86111 -10.43929,2.3077 -11.53417,2.381 -15.15657,0.32384 -18.65202,-4.09811 -22.99328,-14.70843 -3.59917,-8.79659 -6.91373,-5.28385 -8.6216,-11.62523 1.78829,-0.59213 19.20855,-10.60749 22.51362,-9.36049 z"
     id="path1743"
     sodipodi:nodetypes="cccccscsccc" /><path
     style="fill:#000000;fill-opacity:1;stroke:none;stroke-width:0;stroke-miterlimit:4;stroke-dasharray:none;stroke-opacity:1"
     d="m 203.75557,222.91929 c 1.85848,-6.66189 8.5689,-16.25464 15.29637,-13.49828 5.11911,2.09739 10.38072,1.7867 12.22332,1.69096 7.98225,-0.0861 9.67505,-0.58067 14.22493,-0.33539 4.76808,0.25705 7.33997,0.64092 9.12296,2.381 2.46973,2.4103 9.50029,1.08663 3.08423,12.47763 -12.66741,3.08212 -24.52009,0.3713 -26.85486,-3.36716 -3.00684,3.7348 -4.99869,3.18097 -5.91828,2.2181 -2.04416,4.45217 -10.20623,11.53915 -17.25141,7.6251 -4.48653,-6.06676 -3.60144,-8.55902 -3.92726,-9.19196 z"
     id="path1739"
     sodipodi:nodetypes="cscssccccc" /><path
     style="fill:#000000;stroke-width:0.24"
     d="m 34.294538,400.84826 c 0.0531,-3.85651 0.21163,-7.37637 0.3595,-7.98 0.14552,-0.594 0.42101,-1.836 0.61221,-2.76 0.19121,-0.924 0.68915,-3.246 1.10654,-5.16 0.41739,-1.914 0.9794,-4.506 1.2489,-5.76 0.2695,-1.254 0.57685,-2.658 0.683,-3.12 0.10615,-0.462 0.35418,-1.596 0.55118,-2.52 0.197,-0.924 0.59685,-2.76 0.88856,-4.08 0.29171,-1.32 0.6177,-2.832 0.72442,-3.36 0.10672,-0.528 0.53703,-2.526 0.95625,-4.44 0.41922,-1.914 0.90112,-4.128 1.07089,-4.92 0.16977,-0.792 0.65698,-3.006 1.08269,-4.92 0.42571,-1.914 0.86982,-3.966 0.98692,-4.56 0.1171,-0.594 0.45813,-2.214 0.75786,-3.6 l 0.54495,-2.52 7.84585,-0.0633 7.84585,-0.0633 0.27411,1.01796 c 0.28339,1.05244 0.77773,3.26297 1.19484,5.34298 0.2684,1.33842 1.70624,7.98209 2.44245,11.28559 0.26476,1.188 0.56547,2.592 0.66826,3.12 0.10278,0.528 0.47099,2.256 0.81823,3.84 0.34724,1.584 0.84305,3.852 1.1018,5.04 0.25875,1.188 0.69446,3.186 0.96824,4.44 0.27378,1.254 0.70615,3.252 0.96083,4.44 0.25468,1.188 0.62904,2.916 0.83192,3.84 0.88228,4.01837 1.33572,6.11585 1.68624,7.8 0.43934,2.11093 1.73646,8.02827 2.65679,12.12 0.35627,1.584 0.69886,3.18286 0.76131,3.55303 0.0996,0.59036 0.20577,0.66406 0.86439,0.6 l 0.75085,-0.073 0.0608,-33.18 0.0608,-33.18 h 5.99916 5.99915 v 17.86585 c 0,10.41213 0.0907,17.92188 0.21738,18.00018 0.11956,0.0739 0.38101,-0.32474 0.58101,-0.88584 0.59573,-1.67139 2.31794,-6.44194 2.83758,-7.86018 0.26601,-0.726 0.898367,-2.508 1.405227,-3.96 0.50688,-1.452 1.20871,-3.396 1.55964,-4.32 0.35094,-0.924 0.78183,-2.112 0.95755,-2.64 0.17572,-0.528 0.83038,-2.364 1.45479,-4.08 1.16684,-3.20667 3.218405,-8.96016 3.914375,-10.97764 l 0.39245,-1.13764 6.04186,-0.002 6.04187,-0.002 0.0948,3.42 c 0.0521,1.881 0.11175,16.704 0.13244,32.94 0.0207,16.236 0.0402,29.655 0.0434,29.82 0.005,0.23231 1.44073,0.3 6.36569,0.3 h 6.36 v -28.41432 c 0,-25.68875 -0.0364,-28.4283 -0.37963,-28.56 -0.2088,-0.0801 -2.62206,-0.14568 -5.3628,-0.14568 -4.52282,0 -5.01986,-0.0405 -5.38037,-0.4389 -0.33805,-0.37354 -0.3972,-1.0704 -0.3972,-4.68 v -4.2411 h 17.64001 17.64 v 4.43156 c 0,4.06464 -0.0367,4.45121 -0.44358,4.66895 -0.24477,0.131 -2.68663,0.25404 -5.44834,0.27453 -2.75262,0.0204 -5.14501,0.0909 -5.31642,0.15672 -0.25311,0.0971 -0.31166,5.45702 -0.31166,28.53392 v 28.41432 h 6.84 6.84 v -27.10262 -27.10258 l 0.64897,-0.51048 c 0.62207,-0.48932 0.85549,-0.50745 5.63195,-0.43742 4.4036,0.0646 5.03275,0.12289 5.41103,0.5016 0.40492,0.40537 0.43145,1.89356 0.49109,27.54 l 0.0631,27.11146 h 1.07696 1.07697 v -33.24 -33.24 h 17.64 17.64 v 4.21578 c 0,2.44708 -0.10424,4.41054 -0.24845,4.68 -0.24009,0.44861 -0.61883,0.46422 -11.26037,0.46422 -6.05656,0 -11.18615,0.0669 -11.3991,0.14857 -0.34616,0.13284 -0.38451,0.99064 -0.36201,8.09808 0.0139,4.37223 0.0847,8.24737 0.15754,8.61143 l 0.13233,0.66192 h 8.3166 c 7.13874,0 8.39214,0.0529 8.85,0.37361 0.52293,0.36627 0.5334,0.47439 0.5334,5.50639 0,5.032 -0.0104,5.14012 -0.5334,5.50639 -0.45786,0.3207 -1.71122,0.37361 -8.84947,0.37361 h -8.31606 l -0.13832,1.26 c -0.1677,1.5276 -0.15897,25.8306 0.009,26.26945 0.0934,0.24337 1.50952,0.31055 6.54625,0.31055 h 6.42708 l 0.11838,-0.66 c 0.0651,-0.363 0.35684,-1.74 0.6483,-3.06 0.29145,-1.32 0.78312,-3.588 1.09259,-5.04 0.30946,-1.452 0.79107,-3.666 1.07023,-4.92 0.27915,-1.254 0.60822,-2.766 0.73127,-3.36 0.12304,-0.594 0.44842,-2.106 0.72307,-3.36 1.0998,-5.02154 1.71798,-7.87976 2.05032,-9.48 0.1919,-0.924 0.46254,-2.166 0.60141,-2.76 0.53863,-2.30381 0.72283,-3.14594 1.65358,-7.56 0.52884,-2.508 1.11563,-5.208 1.30397,-6 0.34529,-1.45195 0.69723,-3.08426 1.70763,-7.92 0.49609,-2.37427 1.23096,-5.77158 1.81701,-8.4 0.11771,-0.528 0.34963,-1.608 0.51537,-2.4 l 0.30134,-1.44 7.84939,-0.0633 7.84938,-0.0633 0.23882,0.90327 c 0.20956,0.79261 0.46758,1.9533 1.45457,6.54326 0.12773,0.594 0.61725,2.862 1.08784,5.04 0.83467,3.8631 1.15589,5.36127 1.56952,7.32 0.1115,0.528 0.41855,1.932 0.68233,3.12 0.26377,1.188 0.65401,2.97 0.86719,3.96 0.21318,0.99 0.48311,2.232 0.59986,2.76 0.45615,2.06298 1.16307,5.34827 1.44599,6.72 0.16336,0.792 0.44019,2.034 0.61518,2.76 0.17499,0.726 0.59385,2.67 0.93079,4.32 0.33694,1.65 0.83381,3.972 1.10414,5.16 0.27034,1.188 0.59002,2.646 0.7104,3.24 0.12038,0.594 0.38868,1.836 0.59622,2.76 0.20754,0.924 0.64509,2.976 0.97233,4.56 0.32724,1.584 0.83049,3.879 1.11834,5.1 l 0.52337,2.22 2.17216,-0.0126 c 2.12047,-0.0123 2.1579,-0.0223 1.57218,-0.42 -1.41214,-0.95887 -2.61386,-2.29795 -3.32285,-3.70266 -1.34681,-2.66843 -1.47715,-3.61691 -1.47715,-10.74801 0,-6.14103 0.023,-6.4721 0.46422,-6.70829 0.27873,-0.14917 2.52694,-0.24844 5.62638,-0.24844 5.06237,0 5.16939,0.0103 5.53578,0.5334 0.30231,0.43162 0.37362,1.3063 0.37362,4.58373 0,6.19523 0.18934,6.41693 5.44808,6.37895 1.82155,-0.0132 3.5807,-0.0987 3.90922,-0.19019 0.32852,-0.0915 0.84321,-0.53117 1.14378,-0.97718 0.53941,-0.80043 0.54566,-0.89461 0.48269,-7.27904 l -0.0637,-6.46813 -1.92,-0.66853 c -1.056,-0.36769 -5.9399,-1.98227 -10.85312,-3.58796 -7.87769,-2.5745 -9.00484,-3.00465 -9.54,-3.64066 l -0.6069,-0.72122 v -12.44987 c 0,-13.63351 0.0139,-13.79367 1.44858,-16.72067 0.43601,-0.88951 1.1732,-1.87831 1.83402,-2.45999 l 1.10498,-0.97264 h 13.26397 13.26397 l 1.13984,1.26 c 1.26323,1.39641 2.3055,3.47354 2.71557,5.41181 0.38181,1.80472 0.3658,13.77545 -0.0189,14.16019 -0.20674,0.20674 -1.79432,0.288 -5.6264,0.288 -5.24447,0 -5.34496,-0.009 -5.712,-0.5334 -0.30259,-0.43201 -0.37368,-1.31018 -0.37398,-4.62 -5.5e-4,-6.11304 -0.24961,-6.4223 -5.27962,-6.55592 -2.75039,-0.0731 -3.08986,-0.0336 -4.08,0.47481 -0.80248,0.41202 -1.15361,0.77036 -1.36646,1.39451 -0.41501,1.21699 -0.42703,13.29495 -0.0136,13.60929 0.39751,0.30218 0.91826,0.48098 11.82,4.05844 8.09828,2.65749 9.46514,3.17484 10.14,3.8379 l 0.78,0.76637 -0.003,12.324 c -0.003,13.03655 -0.0245,13.32881 -1.16712,15.91202 -0.69767,1.5772 -1.50076,2.5954 -2.95162,3.74224 l -1.20151,0.94974 h 3.72729 3.72729 l 0.0743,-4.67199 c 0.0652,-4.102 0.1265,-4.72421 0.50243,-5.1 0.3643,-0.36417 0.96392,-0.44024 4.02001,-0.51002 l 3.59198,-0.082 v 5.30201 5.30201 h -124.09 -124.090392 z m 29.44583,6.10914 c 0,-0.30297 -0.20638,-1.57197 -0.45863,-2.82 -0.25224,-1.24803 -0.76011,-3.80814 -1.12858,-5.68914 l -0.66996,-3.42 h -7.73524 c -8.64699,0 -7.80655,-0.18643 -8.11451,1.8 -0.0819,0.528 -0.25439,1.446 -0.38341,2.04 -0.51812,2.38534 -1.42967,7.52878 -1.42967,8.06695 v 0.57305 h 9.96 9.96 z m 39.360002,-17.80914 c 0,-12.08 -0.0821,-18.36 -0.24,-18.36 -0.132,0 -0.24,0.0419 -0.24,0.0931 0,0.0512 -0.38638,1.15822 -0.85861,2.46 -0.47223,1.30178 -1.39929,3.87888 -2.060135,5.72688 -2.3895,6.68205 -4.31067,11.99955 -6.069717,16.8 -0.93161,2.54239 -2.44191,6.79609 -2.76942,7.8 -0.10765,0.33 -0.47525,1.329 -0.81687,2.22 l -0.62112,1.62 h 6.837927 6.837945 z m 122.64001,17.85427 c 0,-0.44338 -1.15761,-6.65911 -1.97305,-10.59427 l -0.28597,-1.38 h -7.7193 -7.71931 l -0.26728,1.02 c -0.147,0.561 -0.38106,1.722 -0.52011,2.58 -0.13907,0.858 -0.35604,2.1 -0.48217,2.76 -0.12613,0.66 -0.39922,2.118 -0.60687,3.24 -0.20765,1.122 -0.43171,2.229 -0.49792,2.46 -0.11328,0.39525 0.47454,0.42 9.97581,0.42 h 10.09617 z M 59.180368,384.33814 c 0,-0.20356 -0.15146,-1.14856 -0.33659,-2.1 -0.18512,-0.95143 -0.57237,-3.02588 -0.86056,-4.60988 -0.28819,-1.584 -0.7779,-4.23 -1.08824,-5.88 -0.80917,-4.30207 -1.74879,-9.39544 -2.16949,-11.76 -0.80724,-4.5372 -0.90061,-4.91283 -1.09994,-4.42511 -0.10455,0.25581 -0.41568,1.70711 -0.6914,3.22511 -0.27571,1.518 -0.70653,3.894 -0.95736,5.28 -2.13086,11.77412 -3.37553,18.50979 -3.56894,19.31368 -0.1262,0.52453 -0.17763,1.03753 -0.1143,1.14 0.0633,0.10248 2.53877,0.18632 5.50098,0.18632 4.69285,0 5.38584,-0.0476 5.38584,-0.37012 z m 161.998422,0.19012 c -0.003,-0.34471 -1.22138,-7.07959 -3.00654,-16.62 -0.60513,-3.234 -1.19228,-6.474 -1.30478,-7.2 -0.1125,-0.726 -0.37604,-2.13 -0.58562,-3.12 -0.2096,-0.99 -0.38445,-1.908 -0.38858,-2.04 -0.0211,-0.6742 -0.4642,0.72006 -0.80095,2.52 -0.20991,1.122 -0.69963,3.714 -1.08828,5.76 -0.59341,3.12405 -2.7336,14.75116 -3.40158,18.48 -0.10641,0.594 -0.19991,1.377 -0.20778,1.74 l -0.0143,0.66 h 5.4 c 2.97,0 5.39929,-0.081 5.39841,-0.18 z m 53.41519,10.2066 c -0.33269,-0.47498 -0.37361,-3.44549 -0.37361,-27.12 v -26.5866 h 4.08001 4.08 v 27.12 27.12 h -3.7064 c -3.558,0 -3.72134,-0.0214 -4.08,-0.5334 z m -120.24,-44.88 c -0.30314,-0.4328 -0.37361,-1.31544 -0.37361,-4.68 v -4.1466 h 6.12001 6.11999 v 3.97192 c 0,3.0909 -0.0812,4.12898 -0.36616,4.68 l -0.36617,0.70808 h -5.38022 c -5.28771,0 -5.38666,-0.009 -5.75384,-0.5334 z"
     id="path845" /><path
     style="fill:#000000;stroke:#000000;stroke-width:0.75px;stroke-linecap:butt;stroke-linejoin:miter;stroke-opacity:1"
     d="m 243.86627,228.18645 c 4.39623,-0.60248 8.02506,-0.41827 10.66541,-0.69521 1.86635,-0.19576 0.39311,1.89518 -0.956,3.1996 -1.52737,1.47678 -6.62411,2.07953 -8.31046,0.78726 -1.58628,-1.21558 -3.37891,-3.02031 -1.39895,-3.29165 z"
     id="path1764"
     sodipodi:nodetypes="sssss" /><path
     style="fill:#000000;fill-opacity:1;stroke:none;stroke-width:0;stroke-miterlimit:4;stroke-dasharray:none;stroke-opacity:1"
     d="m 118.37592,206.96749 c 0.67253,-1.3077 -0.80122,-16.51926 -2.12907,-23.0696 0.10061,-5.46164 -1.24393,-12.56238 -0.26818,-17.37456 -1.48056,-5.84008 -0.18961,-9.92302 1.30409,-14.09196 5.53044,-1.72541 8.70326,-4.1123 13.26222,4.92857 -0.0268,3.61871 2.55817,8.72634 1.18086,12.85386 0.81688,3.32076 2.12411,12.99972 1.80886,14.42025 1.30185,1.02244 6.00522,24.36896 5.29917,24.94002 -12.96303,0.3235 -15.26644,1.68858 -20.45795,-2.60658 z"
     id="path1761-3"
     sodipodi:nodetypes="ccccccccc" /><path
     style="fill:#000000;fill-opacity:1;stroke:none;stroke-width:0;stroke-miterlimit:4;stroke-dasharray:none;stroke-opacity:1"
     d="m 149.41195,209.85886 c -2.55077,-1.25424 -6.69046,-2.34484 -6.75768,-2.70968 -0.11055,-0.60018 -2.75545,-13.69878 -1.887,-14.27479 5.63468,-5.30589 12.87576,-4.78638 18.09562,1.36185 -3.52136,5.77953 -0.92002,10.48542 -2.31909,16.87909 -4.28714,0.44186 -4.47299,0.20058 -7.13185,-1.25647 z"
     id="path1759-5"
     sodipodi:nodetypes="cscccc" /><path
     style="fill:#000000;fill-opacity:1;stroke:none;stroke-width:0;stroke-miterlimit:4;stroke-dasharray:none;stroke-opacity:1"
     d="m 154.13337,229.60318 c 0.17622,-2.95768 0.68683,-1.90132 1.68109,-3.41088 1.61273,-2.44856 3.51977,-5.08182 3.20006,-9.67295 -0.12481,-1.79245 -2.05901,-3.55649 -0.67273,-6.95303 0.9151,-7.94774 -0.70983,-8.38408 1.70378,-13.53864 9.64722,-1.54155 11.7183,0.33262 16.50445,3.91082 -2.52616,10.68613 -1.20109,19.91488 -9.07146,29.71158 -4.38871,4.17649 -13.70015,2.05577 -13.34519,-0.0469 z"
     id="path1757-6"
     sodipodi:nodetypes="cssccccc" /><path
     style="fill:#000000;fill-opacity:1;stroke:none;stroke-width:0;stroke-miterlimit:4;stroke-dasharray:none;stroke-opacity:1"
     d="m 132.64018,228.05523 c 2.95188,0.4877 2.06524,-0.0129 3.43793,2.31691 4.27523,3.67885 7.38791,3.57253 10.91553,3.34554 0.007,0.12789 4.57471,-1.20592 5.60544,0.56388 8.83921,12.70043 9.36669,12.76238 3.35517,25.26432 -1.20702,0.92038 -1.2595,0.85903 -2.67864,1.82247 -1.26837,0.86111 -10.43929,2.3077 -11.53417,2.381 -15.15656,0.32384 -18.65202,-4.09811 -22.99328,-14.70843 -3.59916,-8.79659 -6.91373,-5.28385 -8.6216,-11.62523 1.78829,-0.59213 19.20855,-10.60749 22.51362,-9.36049 z"
     id="path1743-7"
     sodipodi:nodetypes="cccccscsccc" /><path
     style="fill:#000000;fill-opacity:1;stroke:none;stroke-width:0;stroke-miterlimit:4;stroke-dasharray:none;stroke-opacity:1"
     d="m 101.64003,223.02857 c 1.85847,-6.66189 8.5689,-16.25464 15.29636,-13.49828 5.11911,2.09739 10.38072,1.7867 12.22332,1.69096 7.98225,-0.0861 9.67505,-0.58067 14.22493,-0.33539 4.76808,0.25705 7.33997,0.64092 9.12297,2.381 2.46973,2.4103 9.50029,1.08663 3.08422,12.47763 -12.66741,3.08212 -24.52009,0.3713 -26.85486,-3.36716 -3.00684,3.7348 -4.99869,3.18097 -5.91828,2.2181 -2.04416,4.45217 -10.20623,11.53915 -17.25141,7.6251 -4.48652,-6.06676 -3.60144,-8.55902 -3.92725,-9.19196 z"
     id="path1739-0"
     sodipodi:nodetypes="cscssccccc" /><path
     style="fill:#000000;stroke:#000000;stroke-width:0.75px;stroke-linecap:butt;stroke-linejoin:miter;stroke-opacity:1"
     d="m 141.75072,228.29573 c 4.39623,-0.60248 8.02506,-0.41827 10.66541,-0.69521 1.86636,-0.19576 0.39311,1.89518 -0.956,3.1996 -1.52736,1.47678 -6.6241,2.07953 -8.31046,0.78726 -1.58627,-1.21558 -3.37891,-3.02031 -1.39895,-3.29165 z"
     id="path1764-9"
     sodipodi:nodetypes="sssss" /><path
     id="path1857-0"
     style="fill:#000000;fill-opacity:1;stroke:none;stroke-width:0;stroke-miterlimit:4;stroke-dasharray:none;stroke-opacity:1"
     d="m 261.03264,261.69787 -3.78241,42.79609 -1.19135,6.81607 c 11.04741,-0.0547 11.29043,-0.009 18.46204,0.0533 -0.0329,-3.78879 -0.0514,-3.88797 0.13184,-18.55664 l 3.21972,-29.43604 -0.43359,1.03565 c 0.12318,-0.31377 0.26819,-0.67216 0.37793,-0.95801 0.47748,-1.24372 -10.793,3.35691 -16.78418,-1.75049 z"
     sodipodi:nodetypes="cccccccscc" /><path
     id="path1853-62"
     style="fill:#000000;fill-opacity:1;stroke:none;stroke-width:0;stroke-miterlimit:4;stroke-dasharray:none;stroke-opacity:1"
     d="m 258.59221,261.63488 c -4.76731,3.15281 -12.2497,3.60613 -17.66309,3.71192 l 0.006,0.019 c -8.25196,0.14327 -8.29969,0.14593 -13.604,-3.33399 -1.59813,0.99016 -0.34166,4.27858 2.63525,20.85645 -1.28426,6.78646 -3.93363,11.15672 -4.00781,16.08398 -0.0557,3.7017 0.0249,12.22852 0.0249,12.22852 8.03538,0.004 20.71453,-0.0516 27.62256,-0.0498 l 0.003,0.009 c 6.2e-4,-0.003 8.4e-4,-0.006 0.001,-0.009 0.008,10e-6 0.0239,0 0.0322,0 l -0.019,-0.0674 c 4.77197,-23.21812 3.66228,-30.78122 4.96875,-49.44873 z" /></svg>
