<?xml version="1.0" encoding="UTF-8" standalone="no"?>
<!-- Created with Inkscape (http://www.inkscape.org/) -->

<svg
   version="1.1"
   id="svg2"
   width="330.88"
   height="88.959999"
   viewBox="0 0 330.88 88.959999"
   sodipodi:docname="Logo2.svg"
   inkscape:version="1.1.2 (0a00cf5339, 2022-02-04)"
   xmlns:inkscape="http://www.inkscape.org/namespaces/inkscape"
   xmlns:sodipodi="http://sodipodi.sourceforge.net/DTD/sodipodi-0.dtd"
   xmlns="http://www.w3.org/2000/svg"
   xmlns:svg="http://www.w3.org/2000/svg">
  <defs
     id="defs6" />
  <sodipodi:namedview
     id="namedview4"
     pagecolor="#ffffff"
     bordercolor="#666666"
     borderopacity="1.0"
     inkscape:pageshadow="2"
     inkscape:pageopacity="0.0"
     inkscape:pagecheckerboard="0"
     showgrid="false"
     inkscape:zoom="3.4060686"
     inkscape:cx="277.88636"
     inkscape:cy="44.479433"
     inkscape:window-width="1296"
     inkscape:window-height="704"
     inkscape:window-x="70"
     inkscape:window-y="27"
     inkscape:window-maximized="1"
     inkscape:current-layer="g8" />
  <g
     inkscape:groupmode="layer"
     inkscape:label="Image"
     id="g8">
    <path
       style="fill:#000000;stroke-width:0.32"
       d="m 0.66702438,79.880552 c 0.07075,-5.142016 0.282181,-9.835161 0.47934402,-10.64 0.194017,-0.792 0.561344,-2.448 0.81628,-3.68 0.254937,-1.232 0.918858,-4.328 1.47538,-6.88 0.556522,-2.552 1.305862,-6.008 1.6652,-7.68 0.359338,-1.672 0.769139,-3.544 0.910671,-4.16 0.141531,-0.616 0.472239,-2.128 0.734906,-3.359999 0.262666,-1.232 0.795803,-3.68 1.184748,-5.44 0.388944,-1.76 0.823595,-3.776 0.965889,-4.48 0.142294,-0.704 0.716047,-3.368 1.2750066,-5.92 0.558959,-2.552 1.201492,-5.504 1.42785,-6.56 0.226358,-1.056 0.87597,-4.008 1.443583,-6.559999 0.567612,-2.552 1.159766,-5.2880005 1.315896,-6.0800005 0.15613,-0.792 0.610845,-2.952 1.010478,-4.7999999 l 0.726606,-3.35999998 10.461131,-0.084355 10.461131,-0.084355 0.365478,1.35728528 c 0.377856,1.4032432 1.036973,4.3506175 1.593123,7.123964 0.357869,1.7845641 2.274983,10.6427971 3.256599,15.0474601 0.353008,1.584 0.753961,3.456 0.891008,4.16 0.137049,0.704 0.627987,3.008 1.090972,5.12 0.462989,2.112 1.124071,5.136 1.469072,6.72 0.345002,1.584 0.925946,4.248 1.290986,5.919999 0.36504,1.672 0.941539,4.336 1.281114,5.92 0.339571,1.584 0.83872,3.888 1.109222,5.12 1.176371,5.357824 1.780963,8.154471 2.248321,10.4 0.58579,2.814579 2.31528,10.704362 3.54238,16.16 0.47503,2.112 0.93182,4.243818 1.01509,4.737376 0.1328,0.787149 0.27436,0.885414 1.15252,0.8 l 1.00113,-0.09738 0.0811,-44.239999 0.0811,-44.23999888 h 7.99888 7.99887 V 23.941667 c 0,13.882838 0.12092,23.895849 0.28984,24.000242 0.15941,0.09852 0.50801,-0.432979 0.77467,-1.181113 0.79431,-2.228519 3.09059,-8.589258 3.78345,-10.480243 0.35468,-0.968 1.19782,-3.344 1.87364,-5.28 0.67583,-1.936 1.61161,-4.528 2.07952,-5.76 0.46791,-1.232 1.04244,-2.816 1.27673,-3.52 0.23429,-0.704 1.10717,-3.152 1.93972,-5.44 1.55578,-4.275556 4.2912,-11.9468855 5.21916,-14.6368528 l 0.52327,-1.51685338 8.055811,-0.00315 8.05582,-0.00315 0.12642,4.55999988 c 0.0695,2.508 0.149,22.2719993 0.17659,43.9199983 0.0276,21.648 0.0536,39.54 0.0578,39.76 0.006,0.309747 1.92097,0.4 8.48759,0.4 h 8.48 V 50.874789 c 0,-34.251664 -0.0486,-37.904394 -0.50617,-38.079999 -0.2784,-0.10683 -3.49608,-0.194236 -7.15041,-0.194236 -6.03042,0 -6.69315,-0.05406 -7.17382,-0.585197 -0.45074,-0.49806 -0.5296,-1.42721 -0.5296,-6.2400006 V 0.12055362 h 23.52 23.52 V 6.0292947 c 0,5.4195233 -0.049,5.9349483 -0.59144,6.2252703 -0.32636,0.174666 -3.58217,0.338717 -7.26446,0.366037 -3.67015,0.02723 -6.86001,0.121263 -7.08856,0.208966 -0.33748,0.129506 -0.41554,7.276017 -0.41554,38.045221 v 37.885763 h 9.12 9.12 V 52.623778 16.487004 l 0.86529,-0.680638 c 0.82943,-0.652428 1.14066,-0.6766 7.50927,-0.583225 5.87147,0.08608 6.71034,0.163848 7.21471,0.668792 0.53989,0.540504 0.57527,2.524758 0.65478,36.719999 l 0.0841,36.14862 h 1.43595 1.43595 V 44.440553 0.12055362 h 23.52 23.52 V 5.7415907 c 0,3.262773 -0.13898,5.8807193 -0.33126,6.2400003 -0.32012,0.598144 -0.82511,0.618963 -15.01383,0.618963 -8.07541,0 -14.91487,0.08914 -15.1988,0.198097 -0.46155,0.177113 -0.51268,1.320847 -0.48268,10.797437 0.0185,5.829637 0.11298,10.996493 0.21006,11.481901 l 0.17643,0.882564 h 11.0888 c 9.51832,0 11.18952,0.07055 11.8,0.498144 0.69724,0.488364 0.7112,0.632518 0.7112,7.341856 0,6.709337 -0.0139,6.853491 -0.7112,7.341855 -0.61048,0.427591 -2.28162,0.498144 -11.79929,0.498144 h -11.08808 l -0.18443,1.68 c -0.2236,2.0368 -0.21196,34.440797 0.0126,35.025933 0.12452,0.324493 2.0127,0.414067 8.72833,0.414067 h 8.56945 l 0.15784,-0.88 c 0.0868,-0.484 0.47579,-2.32 0.8644,-4.08 0.3886,-1.76 1.04416,-4.784 1.45678,-6.72 0.41262,-1.936 1.05476,-4.888 1.42697,-6.56 0.37221,-1.672 0.81097,-3.688 0.97503,-4.48 0.16406,-0.792 0.5979,-2.808 0.96409,-4.48 1.46641,-6.695388 2.29064,-10.506342 2.73377,-12.64 0.25587,-1.232 0.61671,-2.888 0.80188,-3.68 0.71817,-3.071743 0.96377,-4.194585 2.20477,-10.079999 0.70512,-3.344 1.4875,-6.944 1.73863,-8 0.46038,-1.935931 0.92964,-4.112351 2.27683,-10.56 0.66146,-3.165699 1.64129,-7.6954456 2.42268,-11.1999995 0.15695,-0.704 0.46618,-2.1439999 0.68716,-3.1999999 l 0.40179,-1.91999998 10.46585,-0.084354 10.46585,-0.084355 0.31842,1.20435438 c 0.27942,1.0568188 0.62345,2.6044031 1.93943,8.724354 0.1703,0.792001 0.823,3.816001 1.45045,6.72 1.11289,5.150796 1.54119,7.148357 2.0927,9.76 0.14867,0.704 0.55806,2.576 0.90977,4.16 0.3517,1.584 0.87202,3.96 1.15625,5.28 0.28424,1.32 0.64415,2.976 0.79982,3.68 0.6082,2.75064 1.55076,7.131027 1.92799,8.959999 0.2178,1.056 0.58691,2.712 0.82023,3.68 0.23333,0.968 0.79181,3.56 1.24106,5.76 0.44925,2.2 1.11174,5.296 1.47219,6.88 0.36045,1.584 0.78669,3.528 0.94719,4.32 0.16051,0.792 0.51824,2.448 0.79497,3.68 0.27672,1.232 0.86012,3.968 1.29644,6.08 0.43632,2.112 1.10732,5.172 1.49112,6.8 l 0.69782,2.96 2.89622,-0.0168 c 2.8273,-0.01638 2.87719,-0.0297 2.09623,-0.56 -1.88285,-1.278493 -3.48514,-3.06393 -4.43045,-4.936874 -1.79574,-3.55791 -1.96955,-4.822559 -1.96955,-14.330681 0,-8.188041 0.0306,-8.629475 0.61896,-8.944387 0.37164,-0.198893 3.36926,-0.331258 7.50186,-0.331258 6.74983,0 6.89252,0.01376 7.38104,0.711204 0.40308,0.575488 0.49814,1.741731 0.49814,6.111638 0,8.260304 0.25247,8.555907 7.26411,8.505261 2.42874,-0.01754 4.77427,-0.131655 5.21229,-0.253578 0.43803,-0.121926 1.12429,-0.708234 1.52505,-1.302909 0.71921,-1.067238 0.72754,-1.192819 0.64359,-9.705395 l -0.085,-8.624169 -2.56,-0.891367 c -1.408,-0.490253 -7.91988,-2.643027 -14.47084,-4.783949 -10.50358,-3.432672 -12.00645,-4.006198 -12.72,-4.854211 l -0.8092,-0.961628 V 26.991613 c 0,-18.1780029 0.0185,-18.3915494 1.93145,-22.2942147 0.58134,-1.1860259 1.56426,-2.5044217 2.44536,-3.2799999 l 1.4733,-1.29684478 h 17.68529 17.68529 l 1.51979,1.67999998 c 1.68431,1.8618723 3.07401,4.6313836 3.62076,7.2157506 0.50908,2.4062918 0.48774,18.3672668 -0.0252,18.8802488 -0.27565,0.275648 -2.39242,0.384 -7.50186,0.384 -6.99263,0 -7.12662,-0.01251 -7.616,-0.711202 -0.40346,-0.576018 -0.49824,-1.746906 -0.49864,-6.16 -7.4e-4,-8.150717 -0.33282,-8.563069 -7.0395,-8.741226 -3.66718,-0.09741 -4.11981,-0.04474 -5.44,0.633086 -1.06997,0.549359 -1.53814,1.027141 -1.82194,1.859342 -0.55335,1.622646 -0.56938,17.726604 -0.0181,18.145715 0.53001,0.402909 1.22435,0.641312 15.76,5.411261 10.79771,3.543321 12.62019,4.233116 13.52,5.1172 l 1.04,1.021823 -0.004,16.432 c -0.004,17.382064 -0.0326,17.771751 -1.55616,21.216032 -0.93023,2.102928 -2.00101,3.460528 -3.93549,4.989648 l -1.60202,1.26632 h 4.96972 4.96972 l 0.099,-6.229322 c 0.0869,-5.469327 0.16867,-6.298947 0.66992,-6.799999 0.48573,-0.485559 1.28522,-0.586989 5.36,-0.680029 l 4.78931,-0.109347 v 7.069347 7.06935 H 165.99429 0.54044038 Z m 39.26111362,8.14552 c 0,-0.403965 -0.275178,-2.095965 -0.611504,-3.76 -0.33633,-1.664035 -1.013482,-5.07752 -1.504784,-7.58552 l -0.893277,-4.56 H 26.604919 c -11.52931,0 -10.408723,-0.248573 -10.819339,2.4 -0.109143,0.704 -0.339193,1.928 -0.511223,2.72 -0.690825,3.180458 -1.906219,10.038378 -1.906219,10.755933 v 0.764067 h 13.28 13.28 z m 52.480001,-23.74552 c 0,-16.106665 -0.10946,-24.479999 -0.32,-24.479999 -0.176,0 -0.32,0.05587 -0.32,0.12416 0,0.06829 -0.51517,1.544288 -1.14481,3.28 -0.62964,1.735711 -1.86573,5.171839 -2.74685,7.635839 -3.18599,8.909402 -5.74755,15.999395 -8.09295,22.4 -1.24215,3.389859 -3.25588,9.061459 -3.69256,10.4 -0.14354,0.44 -0.63367,1.772 -1.08916,2.96 l -0.82817,2.16 h 9.11725 9.11725 z M 255.92814,88.086245 c 0,-0.591175 -1.54347,-8.87881 -2.63073,-14.125693 l -0.38129,-1.84 h -10.2924 -10.29241 l -0.35637,1.36 c -0.196,0.748 -0.50808,2.296 -0.69349,3.44 -0.18543,1.144 -0.47472,2.8 -0.64289,3.68 -0.16817,0.88 -0.5323,2.824 -0.80916,4.32 -0.27687,1.496 -0.57562,2.972 -0.66389,3.28 -0.15104,0.527002 0.63272,0.56 13.30107,0.56 h 13.46156 z M 33.848138,57.867061 c 0,-0.271421 -0.201952,-1.531421 -0.448784,-2.8 -0.246829,-1.268579 -0.763168,-4.034509 -1.147421,-6.146509 -0.384251,-2.112 -1.037197,-5.639999 -1.450989,-7.839999 -1.078885,-5.73609 -2.331719,-12.527259 -2.892643,-15.68 -1.076321,-6.049597 -1.200815,-6.55044 -1.466593,-5.900142 -0.139399,0.341078 -0.554235,2.276142 -0.921858,4.300142 -0.367622,2.024 -0.942044,5.192 -1.276491,7.04 -2.841145,15.698828 -4.500707,24.679718 -4.758586,25.751577 -0.168262,0.69937 -0.23684,1.38337 -0.152397,1.52 0.08444,0.136634 3.385034,0.248422 7.334647,0.248422 6.257131,0 7.181115,-0.0635 7.181115,-0.493491 z m 215.997882,0.253491 c -0.004,-0.459612 -1.6285,-9.439449 -4.00871,-22.159999 -0.80684,-4.312 -1.58971,-8.632 -1.73971,-9.6 -0.15,-0.968 -0.50138,-2.84 -0.78083,-4.16 -0.27946,-1.32 -0.5126,-2.544 -0.5181,-2.72 -0.0281,-0.898935 -0.61893,0.960082 -1.06793,3.36 -0.27989,1.496 -0.93285,4.952 -1.45104,7.68 -0.79122,4.165404 -3.6448,19.668217 -4.53545,24.639999 -0.14188,0.792 -0.26654,1.836 -0.27703,2.32 l -0.0191,0.88 h 7.2 c 3.96,0 7.19905,-0.108 7.19788,-0.24 z m 71.22026,13.608797 c -0.44358,-0.633302 -0.49814,-4.593978 -0.49814,-36.16 V 0.12055362 h 5.44 5.44 V 36.280553 72.440552 h -4.94186 c -4.744,0 -4.96179,-0.02848 -5.44,-0.711203 z m -160.32,-59.839997 c -0.40419,-0.577072 -0.49814,-1.753916 -0.49814,-6.2400004 V 0.12055362 h 8.16 8.16 V 5.4164447 c 0,4.1212022 -0.10829,5.5053053 -0.48822,6.2400003 l -0.48822,0.944109 h -7.17363 c -7.05028,0 -7.18221,-0.01223 -7.67179,-0.711202 z"
       id="path845" />
  </g>
</svg>
