<?xml version="1.0" encoding="UTF-8" standalone="no"?>
<!-- Created with Inkscape (http://www.inkscape.org/) -->

<svg
   version="1.1"
   id="svg2"
   width="1034"
   height="278"
   viewBox="0 0 1034 278"
   sodipodi:docname="Logo1.svg"
   inkscape:version="1.1.2 (0a00cf5339, 2022-02-04)"
   xmlns:inkscape="http://www.inkscape.org/namespaces/inkscape"
   xmlns:sodipodi="http://sodipodi.sourceforge.net/DTD/sodipodi-0.dtd"
   xmlns="http://www.w3.org/2000/svg"
   xmlns:svg="http://www.w3.org/2000/svg">
  <defs
     id="defs6" />
  <sodipodi:namedview
     id="namedview4"
     pagecolor="#ffffff"
     bordercolor="#666666"
     borderopacity="1.0"
     inkscape:pageshadow="2"
     inkscape:pageopacity="0.0"
     inkscape:pagecheckerboard="0"
     showgrid="false"
     inkscape:zoom="0.69997562"
     inkscape:cx="889.31669"
     inkscape:cy="217.86473"
     inkscape:window-width="1296"
     inkscape:window-height="704"
     inkscape:window-x="70"
     inkscape:window-y="27"
     inkscape:window-maximized="1"
     inkscape:current-layer="g8" />
  <g
     inkscape:groupmode="layer"
     inkscape:label="Image"
     id="g8">
    <path
       style="fill:#000000"
       d="m 33.543471,271.76763 c 0.34171,-2.8875 0.99955,-6.6 1.46187,-8.25 0.46232,-1.65 1.34771,-6.375 1.96753,-10.5 0.61982,-4.125 1.5113,-8.85 1.98107,-10.5 0.46976,-1.65 1.15857,-5.20888 1.53068,-7.90863 0.37211,-2.69974 1.07956,-5.96857 1.57211,-7.26407 l 0.89554,-2.35545 31.70371,0.26408 31.703709,0.26407 2.29995,11.5 c 1.9294,9.64724 4.93206,25.48823 7.06073,37.25 l 0.4977,2.75 H 74.570121 32.922181 Z m 134.114269,4.58333 c -0.36667,-0.36666 -0.66667,-1.57221 -0.66667,-2.679 0,-1.10678 -0.44521,-3.39428 -0.98935,-5.08333 -0.54415,-1.68905 -2.59297,-10.721 -4.55295,-20.071 -3.15301,-15.04134 -4.84279,-22.81358 -8.58775,-39.5 -4.43082,-19.74241 -9.17872,-41.53893 -9.91118,-45.5 -0.40682,-2.2 -1.23766,-6.25 -1.84633,-9 -1.27321,-5.75254 -3.92233,-18.0041 -7.45984,-34.50001 -1.35638,-6.325 -3.46819,-16 -4.6929,-21.499997 -1.22471,-5.5 -2.56743,-11.8 -2.98382,-14 -0.41639,-2.2 -1.72681,-8.275 -2.91204,-13.499999 -1.18523,-5.225 -3.22064,-14.45 -4.52313,-20.5 -1.30249,-6.05 -3.35626,-15.500001 -4.56393,-21.000001 -1.20768,-5.5 -2.58464,-12.025 -3.05992,-14.5 -0.47529,-2.475 -1.31528,-6.2999996 -1.86665,-8.4999996 -0.55137,-2.2 -1.01323,-4.5625 -1.02635,-5.25 -0.0186,-0.97484797 7.13008,-1.24999997 32.47614,-1.24999997 h 32.5 V 138.51762 277.01763 h -2.33333 c -1.28334,0 -2.63334,-0.3 -3,-0.66667 z m 56.33333,-0.29727 c 0,-0.9361 2.14838,-7.08291 4.03198,-11.53606 0.46528,-1.1 3.37822,-9.2 6.47321,-18 3.09499,-8.8 7.37152,-20.725 9.5034,-26.5 2.13188,-5.775 5.05243,-13.875 6.49011,-18 1.43767,-4.125 3.00878,-8.4 3.49136,-9.5 0.48257,-1.1 2.30618,-6.05 4.05247,-11 8.99551,-25.49858 17.19923,-48.13197 19.75413,-54.50001 0.7603,-1.89502 1.15034,-2.13701 1.61179,-1 0.33482,0.825 0.49239,35.02501 0.35016,76.00001 l -0.25861,74.5 -27.75,0.26582 c -17.92924,0.17174 -27.75,-0.0865 -27.75,-0.72976 z m 107.66667,0.29727 c -0.36667,-0.36666 -0.66667,-62.69166 -0.66667,-138.50001 V 0.01762343 h 2.5 2.5 V 18.460919 c 0,17.925161 0.0624,18.487029 2.22251,20.000001 1.84636,1.293247 5.90813,1.556704 24,1.556704 h 21.77749 v 118.500006 118.5 h -25.83333 c -14.20834,0 -26.13334,-0.3 -26.5,-0.66667 z m 104.0155,0.0155 c -0.3752,-0.37519 -0.68217,-53.70716 -0.68217,-118.5155 V 40.017624 h 21.77749 c 18.09187,0 22.15364,-0.263457 24,-1.556704 2.16007,-1.512972 2.22251,-2.07484 2.22251,-20.000001 V 0.01762343 h 4.47793 4.47794 l 0.27206,18.72139957 0.27207,18.7214 2.5,1.263859 c 1.77023,0.894929 8.5062,1.268162 23.07569,1.2786 26.88069,0.01926 24.92431,1.769631 24.92431,-22.29971 V 0.01762343 h 4.50352 4.50352 l -0.25352,138.24999657 -0.25352,138.25001 -4.23738,0.30688 -4.23738,0.30688 -0.26262,-113.50703 C 542.54215,72.194015 542.23864,49.864506 541.1932,48.817473 c -0.96426,-0.965732 -6.8352,-1.378463 -22.8403,-1.605689 -18.28255,-0.259558 -21.90644,-0.06734 -23.94787,1.270255 l -2.40542,1.576095 -0.25427,113.229756 -0.25427,113.22974 -27.56783,0.2655 c -15.16231,0.14602 -27.87481,-0.0415 -28.25,-0.41667 z m 167.31783,-57.3325 v -58.01633 h 35.97432 35.97432 l 1.52568,-2.95034 c 2.15038,-4.15837 2.24018,-40.68966 0.10719,-43.60854 -1.34611,-1.84209 -3.2467,-1.96664 -37.25,-2.44113 l -35.83151,-0.5 -0.26263,-35.749997 -0.26263,-35.749999 h 45.90184 c 43.68658,0 46.01575,-0.09216 48.26265,-1.909589 2.3003,-1.860641 2.3688,-2.373303 2.6739,-20.000001 l 0.3131,-18.09041057 h 7.9822 7.9822 L 715.492,3.7676234 c -0.3243,2.0625 -1.0046,5.325 -1.5117,7.2499996 -0.5071,1.925 -1.8523,8 -2.9892,13.5 -1.137,5.5 -2.4963,11.575 -3.0208,13.500001 -0.5244,1.925 -2.55,11.375 -4.5013,21 -1.9513,9.625 -3.9674,19.299999 -4.4801,21.499999 -0.5127,2.2 -1.8709,8.275 -3.0182,13.5 -1.1472,5.225 -2.50752,11.074997 -3.02287,12.999997 -0.51534,1.925 -1.63139,7.1 -2.4801,11.5 -0.8487,4.4 -2.72033,13.175 -4.15916,19.5 -1.43883,6.325 -2.95655,13.52501 -3.37272,16.00001 -0.41616,2.475 -1.45788,7.425 -2.31493,11 -1.85031,7.71817 -4.50587,19.87593 -8.08172,37 -1.43564,6.875 -3.03152,14.3 -3.54639,16.5 -1.51474,6.47225 -4.65326,20.75123 -8.79202,40 l -3.87025,18 -26.66974,0.26633 -26.66973,0.26634 z m 105.00003,56.50398 c 0,-1.48823 1.6139,-10.48195 4.6246,-25.77031 0.8935,-4.5375 1.9951,-10.5 2.4479,-13.25 0.4529,-2.75 1.2167,-6.35 1.6974,-8 l 0.874,-3 h 31.8861 31.886 l 2.2958,12 c 1.2627,6.6 3.2599,16.725 4.4384,22.5 1.1785,5.775 2.351,11.9625 2.6056,13.75 l 0.4629,3.25 h -41.6093 c -36.0657,0 -41.6094,-0.19714 -41.6094,-1.47969 z m 134.6493,0.72144 c -0.2577,-0.41703 -1.2035,-4.3161 -2.1017,-8.66459 -0.8982,-4.34848 -1.8162,-8.20266 -2.04,-8.56482 -0.2239,-0.36217 -0.9205,-3.5506 -1.5481,-7.08541 -1.4633,-8.24182 -2.2944,-12.27237 -4.9337,-23.92693 -1.1833,-5.225 -2.5228,-11.3 -2.9767,-13.5 -0.4539,-2.2 -2.0068,-9.4 -3.4509,-16 -1.444,-6.6 -3.5231,-16.275 -4.6201,-21.5 -1.0971,-5.225 -2.9158,-13.55 -4.0417,-18.5 -1.1259,-4.95 -2.4494,-11.02501 -2.9413,-13.50001 -0.4918,-2.475 -2.5434,-11.925 -4.5591,-21 -2.0157,-9.075 -4.0057,-18.3 -4.4223,-20.5 -0.4166,-2.2 -1.7447,-8.274997 -2.9513,-13.499997 -1.2067,-5.225 -2.6084,-11.525 -3.115,-14 -2.1739,-10.620191 -5.9144,-28.196347 -7.8743,-36.999999 -1.1631,-5.225001 -2.5461,-11.525001 -3.0732,-14.000001 -3.9076,-18.3490636 -5.0358,-23.2489276 -5.5412,-24.06665857 -0.353,-0.571282 13.5949,-0.933341 35.9559,-0.933341 h 36.5327 L 850.3718,4.5842184 C 845.9404,9.0156554 839.991,20.02595 839.991,23.795666 c 0,1.002076 -0.5625,2.384184 -1.25,3.071351 -0.9691,0.968635 -1.25,13.368886 -1.25,55.181798 v 53.932405 l 3.5,3.39376 c 3.6427,3.53206 0.8242,2.52754 78,27.79932 6.875,2.25127 13.0945,4.56861 13.8211,5.14966 1.0503,0.83998 1.2552,6.54784 1,27.85739 l -0.3211,26.80096 -3.2679,3.26766 -3.2679,3.26766 -13.7948,0.34166 c -15.466,0.38305 -19.6681,-0.62188 -22.8416,-5.46263 -1.561,-2.38111 -1.8788,-5.42177 -2.1776,-20.83353 -0.1925,-9.92502 -0.7708,-18.833 -1.2852,-19.7955 -0.8491,-1.58863 -3.0508,-1.75 -23.8771,-1.75 h -22.9418 l -1.6205,2.47328 c -1.4237,2.17281 -1.5609,5.66556 -1.1297,28.75 0.5255,28.12606 1.0496,31.6517 6.301,42.38509 1.6905,3.45534 5.062,7.65081 9.1819,11.42596 l 6.5105,5.96567 h -8.0856 c -4.4471,0 -8.2965,-0.34121 -8.5543,-0.75825 z m 126.2699,-4.82748 c 9.1318,-8.51381 12.9216,-16.03542 15.0723,-29.91427 0.6986,-4.50847 0.9822,-23.72887 0.7966,-54 -0.3249,-52.99978 0.097,-50.20533 -8.1995,-54.34862 -2.4281,-1.21265 -7.9413,-3.27156 -12.2517,-4.57537 -4.3103,-1.30381 -23.0236,-7.39745 -41.585,-13.54142 -29.9022,-9.89785 -33.8139,-11.43321 -34.3259,-13.47312 -0.3178,-1.26625 -0.4312,-14.014145 -0.2519,-28.328663 0.305,-24.361709 0.4536,-26.167467 2.3235,-28.231983 3.9046,-4.31108 6.705,-5.00083 20.3035,-5.00083 22.1485,0 22.4837,0.394861 23.1988,27.333256 0.4609,17.358027 0.6567,18.948512 2.5,20.304651 1.6177,1.190083 5.6326,1.436055 21,1.286548 23.3438,-0.227109 24.9614,-0.446818 26.3911,-3.58467 1.3799,-3.028533 1.4848,-39.43858 0.1472,-51.071442 C 982.4589,20.628692 977.6877,9.9510984 970.169,3.2676234 l -3.6561,-3.24999997 h 13.2391 13.239 V 111.32649 c 0,94.47488 0.2143,111.60245 1.4173,113.25001 1.2789,1.75156 2.9391,1.97242 17,2.26152 l 15.5827,0.3204 v 3.4296 3.42961 h -14.847 c -20.5233,0 -19.153,-1.67181 -19.153,23.3673 v 19.6327 h -15.0359 -15.036 z M -6.9299891,110.76762 -7.0088891,0.01762343 h 24.1165701 24.11658 l -0.49674,2.24999997 c -0.27321,1.2375 -1.72384,8.0999996 -3.22363,15.2499996 -1.49978,7.15 -3.08332,14.575 -3.51898,16.5 -0.43565,1.925 -1.33286,5.975001 -1.9938,9.000001 -0.66094,3.025 -1.55821,7.075 -1.99393,9 -0.43573,1.925 -1.76235,8 -2.94807,13.5 -1.18571,5.5 -2.8563,13.149999 -3.71243,16.999999 -0.85613,3.85 -1.92579,9.025 -2.37703,11.5 -0.79453,4.357952 -4.33304,20.868377 -6.00095,27.999997 -1.76933,7.56525 -7.2541801,32.73915 -9.0419701,41.50001 -0.44894,2.2 -1.29203,6.025 -1.87353,8.5 -0.58149,2.475 -1.50494,6.75 -2.05209,9.5 -0.54716,2.75 -1.41570001,6.8 -1.93010001,9 -0.5144,2.2 -2.09844999,9.625 -3.52009999,16.5 -1.42166,6.875 -2.76643,12.95 -2.98837,13.5 -0.22195,0.55 -0.43906,-48.8375 -0.48249,-109.75001 z m 58.9210601,69.77032 c 0,-0.81383 0.67394,-4.97633 1.49765,-9.25 1.58887,-8.24362 5.05608,-27.03411 9.09132,-49.27032 1.34743,-7.425 2.91096,-15.975 3.47451,-19 2.11152,-11.334062 2.74378,-14.808869 4.88909,-26.869435 2.11593,-11.895472 3.82627,-18.361068 4.00247,-15.130561 0.0847,1.552293 1.16696,7.616232 5.62217,31.499999 1.43633,7.699997 2.99453,16.249997 3.46267,18.999997 0.46813,2.75 1.31992,7.475 1.89287,10.5 2.34814,12.39761 5.25364,28.11287 7.02558,38.00001 1.03498,5.775 2.37622,12.66677 2.98054,15.31505 0.60431,2.64828 0.83873,5.23578 0.52093,5.75 -0.33001,0.53397 -9.9879,0.93495 -22.51882,0.93495 -18.7026,0 -21.94098,-0.2184 -21.94098,-1.47969 z m 675.403529,0.0888 c -0.2936,-0.765 -0.053,-3.8025 0.5356,-6.75 1.3271,-6.65094 4.1879,-22.01333 7.5155,-40.35911 2.5498,-14.05757 4.8576,-26.56741 8.6703,-46.999997 1.129,-6.05 2.4801,-13.433508 3.0025,-16.407795 1.3266,-7.553123 2.399,-9.173824 3.2784,-4.954427 1.0927,5.243159 4.4709,23.244477 6.6362,35.362219 2.5027,14.0058 6.587,36.26612 8.8986,48.50001 4.3613,23.08112 5.3747,29.73566 4.769,31.31431 -0.5784,1.50708 -2.8785,1.68568 -21.7096,1.68568 -17.0657,0 -21.1641,-0.26395 -21.5965,-1.3909 z M 224.65774,148.35096 c -0.36667,-0.36666 -0.66667,-33.89167 -0.66667,-74.500004 V 0.01762343 h 27.5 c 16.76143,0 27.5,0.37212 27.5,0.952947 0,0.91024997 -1.22298,4.24055097 -3.13872,8.54705297 -0.48933,1.0999996 -2.94253,7.8499996 -5.45156,14.9999996 -4.59217,13.086388 -9.21178,26.027236 -17.84893,50 -7.64011,21.205428 -13.06104,36.341567 -17.01188,47.499997 -4.09002,11.55152 -9.61498,26.35778 -9.98178,26.75001 -0.12859,0.1375 -0.5338,-0.05 -0.90046,-0.41667 z"
       id="path12" />
  </g>
</svg>
